<svg xmlns="http://www.w3.org/2000/svg" xml:space="preserve" style="fill-rule:evenodd;clip-rule:evenodd;stroke-linejoin:round;stroke-miterlimit:2" viewBox="0 0 2084 2084"><path d="m1041.67 81.38 272.437 159.032-825.246 478.685-272.438-157.971zm87.28 371.074 274.024-159.032 463.937 271.945-276.14 153.73z" style="fill:#3b3b3b;fill-rule:nonzero"/><path d="M216.42 561.126v961.081l825.247 479.746V1684.95l-551.222-321.774-1.587-644.079z" style="fill:#2e2e2e;fill-rule:nonzero"/><path d="m1866.91 1517.97-825.246 483.986v-317.003l550.164-320.714-1.058-645.139 276.14-153.73z" style="fill:#333;fill-rule:nonzero"/><path d="m1590.77 719.097-549.106 310.112v165.393l214.246-122.984v488.757l138.599-81.106V989.451l196.261-115.563z" style="fill:#89c236;fill-rule:nonzero"/><path d="m488.858 719.097 1.587 644.079 152.353 90.118v-198.79l230.645 132.527v199.319l168.753 98.6v-655.741zm383.527 531.166-227.471-131.466v-150.02l227.471 127.225z" style="fill:#7baf31;fill-rule:nonzero"/></svg>