<svg xmlns="http://www.w3.org/2000/svg" width="48" height="48" viewBox="0 0 12.7 12.7"><title>Prism Launcher Logo</title><g stroke-width=".265"><path fill="#df6277" d="M6.35.53 3.83 4.894 6.35 6.35l2.52-1.455.11-3.1C7.829 1.131 6.64.53 6.35.53"/><path fill="#fb9168" d="M8.98 1.795 6.35 6.35l2.52 1.455 2.521-4.365c-.145-.252-1.26-.98-2.411-1.645"/><path fill="#f3db6c" d="M11.391 3.44 6.35 6.35l2.52 1.455 2.74-1.455c0-1.33-.073-2.658-.219-2.91"/><path fill="#7ab392" d="M6.35 6.35v2.91h5.041c.146-.252.218-1.58.218-2.91z"/><path fill="#4b7cbc" d="M6.35 6.35v2.91l2.63 1.645c1.15-.665 2.265-1.393 2.411-1.645z"/><path fill="#6f488c" d="M6.35 6.35 3.83 7.805l2.52 4.366c.291 0 1.479-.602 2.63-1.266z"/><path fill="#4d3f33" d="M3.83 4.895 1.308 9.26c.29.505 4.459 2.91 5.04 2.91V6.35z"/><path fill="#7a573b" d="M1.309 3.44c-.291.504-.291 5.316 0 5.82L6.35 6.35V3.44z"/><path fill="#99cd61" d="M6.35.53c-.582 0-4.75 2.405-5.041 2.91L6.35 6.35z"/><path fill="#fff" d="M6.35 3.44c-.29 0-2.375 1.203-2.52 1.455L6.35 9.26l2.52-4.365C8.726 4.643 6.642 3.44 6.35 3.44"/><path fill="#dfdfdf" d="M3.83 4.895 6.35 9.26c.292 0 2.376-1.203 2.521-1.455s.146-2.658 0-2.91L6.351 6.35z"/><path fill="#d6d2d2" d="M3.83 4.895c-.146.252-.146 2.658 0 2.91.145.252 2.23 1.455 2.52 1.455V6.35z"/></g></svg>