<svg xmlns="http://www.w3.org/2000/svg" width="61" height="31" fill="none" viewBox="0 0 61 31"><path fill="#cbffee" d="M0 0h61v31H0z"/><circle cx="42" cy="24.632" r="5" fill="#e5ff66"/><circle cx="44" cy="8.632" r="7" fill="#6f9"/><circle cx="17" cy="13.632" r="6" fill="#fc6"/><g clip-path="url(#a)"><rect width="3.125" height="7.125" x="47.55" y="8.502" fill="#fff" fill-opacity=".3" stroke="#000" stroke-width="1.125" rx="1.563" transform="rotate(15 47.55 8.502)"/><path fill="#000" d="m47.646 16.357.145-.544-1.086-.29-.146.542.544.146zm-1.605 1.64a.563.563 0 0 0 1.087.291l-.543-.145zm1.062-1.786-.544-.146-.517 1.932.543.146.543.145.518-1.931z"/><path stroke="#000" stroke-linecap="square" stroke-width="1.125" d="m49.432 7.518-.259.966"/><path stroke="#000" stroke-linecap="round" stroke-width="1.125" d="M51.364 8.035 47.5 7"/><mask id="b" width="4" height="7" x="46" y="9" maskUnits="userSpaceOnUse" style="mask-type:alpha"><rect width="2" height="6" x="47.948" y="9.191" fill="#fff" rx="1" transform="rotate(15 47.948 9.19)"/></mask><g mask="url(#b)"><path fill="url(#c)" d="M43.008 11.33h10v4h-10z"/></g><mask id="n" width="48" height="9" x="6.455" y="14.704" fill="#000" maskUnits="userSpaceOnUse"><path fill="#fff" d="M6.455 14.704h48v9h-48z"/><path d="m7.455 22 2.496-5.6h1.28l2.504 5.6h-1.36l-2.048-4.944h.512L8.783 22zm1.248-1.2.344-.984h2.88l.352.984zm7.334 1.264q-.607 0-1.096-.272a2.1 2.1 0 0 1-.776-.776q-.28-.495-.28-1.168 0-.68.28-1.176.287-.496.776-.768.488-.272 1.096-.272.544 0 .952.24t.632.728q.224.487.224 1.248 0 .752-.216 1.248a1.53 1.53 0 0 1-.624.728q-.4.24-.968.24m.216-1.024q.305 0 .552-.144t.392-.408q.152-.272.152-.64 0-.375-.152-.64a1.03 1.03 0 0 0-.392-.408 1.1 1.1 0 0 0-.552-.144q-.311 0-.56.144a1.1 1.1 0 0 0-.4.408 1.3 1.3 0 0 0-.144.64q0 .368.144.64.153.264.4.408t.56.144m1.128.96v-.88l.024-1.28-.08-1.272v-2.504h1.248V22zm2.347 0v-4.304h1.192v1.216l-.168-.352q.192-.456.616-.688.424-.24 1.032-.24v1.152a2 2 0 0 0-.144-.008 1 1 0 0 0-.136-.008q-.511 0-.832.296-.312.288-.312.904V22zm5.519.064q-.735 0-1.296-.288a2.14 2.14 0 0 1-.856-.784 2.17 2.17 0 0 1-.304-1.144q0-.648.296-1.144.304-.504.824-.784a2.4 2.4 0 0 1 1.176-.288q.633 0 1.136.272.511.264.808.768.297.495.296 1.192 0 .072-.008.168l-.016.168h-3.496v-.728h2.84l-.48.216q0-.336-.136-.584a.97.97 0 0 0-.376-.384 1.07 1.07 0 0 0-.56-.144 1.1 1.1 0 0 0-.568.144.95.95 0 0 0-.376.392q-.135.248-.136.592v.192q0 .353.152.624.16.264.44.408.288.136.672.136.345 0 .6-.104.264-.104.48-.312l.664.72a2 2 0 0 1-.744.52 2.8 2.8 0 0 1-1.032.176m5.527-4.432q.511 0 .912.208.408.2.64.624.232.416.232 1.072V22H31.31v-2.272q0-.52-.232-.768-.225-.248-.64-.248-.296 0-.536.128a.87.87 0 0 0-.368.376q-.128.256-.128.656V22h-1.248v-4.304h1.192v1.192l-.224-.36q.232-.433.664-.664t.984-.232M36.33 22v-.84l-.08-.184v-1.504q0-.4-.249-.624-.24-.224-.744-.224-.344 0-.68.112-.327.104-.56.288l-.448-.872a2.7 2.7 0 0 1 .848-.384q.496-.136 1.008-.136.985 0 1.528.464.544.465.544 1.448V22zm-1.313.064a2 2 0 0 1-.864-.168 1.34 1.34 0 0 1-.552-.472 1.2 1.2 0 0 1-.192-.664q0-.384.184-.672.192-.288.6-.448.408-.168 1.064-.168h1.144v.728h-1.008q-.44 0-.608.144a.46.46 0 0 0-.16.36q0 .24.184.384.193.136.52.136.312 0 .56-.144a.87.87 0 0 0 .36-.44l.192.576q-.136.416-.496.632t-.928.216m3.61-.064v-5.936h1.248V22zm2.406 0v-4.304h1.248V22zm.624-4.904a.8.8 0 0 1-.56-.2.65.65 0 0 1-.216-.496q0-.296.216-.496.215-.2.56-.2.344 0 .56.192a.6.6 0 0 1 .216.48.7.7 0 0 1-.216.52q-.208.2-.56.2m4.398.536q.513 0 .912.208.408.2.64.624.232.416.232 1.072V22h-1.248v-2.272q0-.52-.232-.768-.223-.248-.64-.248-.296 0-.536.128a.86.86 0 0 0-.368.376q-.128.256-.128.656V22H43.44v-4.304h1.192v1.192l-.224-.36q.232-.433.664-.664t.984-.232m5.082 4.432q-.736 0-1.296-.288a2.14 2.14 0 0 1-.856-.784 2.17 2.17 0 0 1-.304-1.144q0-.648.296-1.144.303-.504.824-.784a2.4 2.4 0 0 1 1.176-.288q.632 0 1.136.272.511.264.808.768.296.495.296 1.192 0 .072-.008.168l-.016.168h-3.496v-.728h2.84l-.48.216q0-.336-.136-.584a.97.97 0 0 0-.376-.384 1.07 1.07 0 0 0-.56-.144 1.1 1.1 0 0 0-.568.144.95.95 0 0 0-.376.392q-.136.248-.136.592v.192q0 .353.152.624.16.264.44.408.288.136.672.136.345 0 .6-.104.264-.104.48-.312l.664.72a2 2 0 0 1-.744.52 2.8 2.8 0 0 1-1.032.176"/></mask><path fill="url(#d)" d="m7.455 22 2.496-5.6h1.28l2.504 5.6h-1.36l-2.048-4.944h.512L8.783 22zm1.248-1.2.344-.984h2.88l.352.984z"/><path fill="url(#e)" d="M16.037 22.064q-.607 0-1.096-.272a2.1 2.1 0 0 1-.776-.776q-.28-.495-.28-1.168 0-.68.28-1.176.287-.496.776-.768.488-.272 1.096-.272.544 0 .952.24t.632.728q.224.487.224 1.248 0 .752-.216 1.248a1.53 1.53 0 0 1-.624.728q-.4.24-.968.24m.216-1.024q.305 0 .552-.144t.392-.408q.152-.272.152-.64 0-.375-.152-.64a1.03 1.03 0 0 0-.392-.408 1.1 1.1 0 0 0-.552-.144q-.311 0-.56.144a1.1 1.1 0 0 0-.4.408 1.3 1.3 0 0 0-.144.64q0 .368.144.64.153.264.4.408t.56.144m1.128.96v-.88l.024-1.28-.08-1.272v-2.504h1.248V22z"/><path fill="url(#f)" d="M19.728 22v-4.304h1.192v1.216l-.168-.352q.192-.456.616-.688.424-.24 1.032-.24v1.152a2 2 0 0 0-.144-.008 1 1 0 0 0-.136-.008q-.511 0-.832.296-.312.288-.312.904V22z"/><path fill="url(#g)" d="M25.247 22.064q-.735 0-1.296-.288a2.14 2.14 0 0 1-.856-.784 2.17 2.17 0 0 1-.304-1.144q0-.648.296-1.144.304-.504.824-.784a2.4 2.4 0 0 1 1.176-.288q.633 0 1.136.272.511.264.808.768.297.495.296 1.192 0 .072-.008.168l-.016.168h-3.496v-.728h2.84l-.48.216q0-.336-.136-.584a.97.97 0 0 0-.376-.384 1.07 1.07 0 0 0-.56-.144 1.1 1.1 0 0 0-.568.144.95.95 0 0 0-.376.392q-.135.248-.136.592v.192q0 .353.152.624.16.264.44.408.288.136.672.136.345 0 .6-.104.264-.104.48-.312l.664.72a2 2 0 0 1-.744.52 2.8 2.8 0 0 1-1.032.176"/><path fill="url(#h)" d="M30.774 17.632q.511 0 .912.208.408.2.64.624.232.416.232 1.072V22H31.31v-2.272q0-.52-.232-.768-.225-.248-.64-.248-.296 0-.536.128a.87.87 0 0 0-.368.376q-.128.256-.128.656V22h-1.248v-4.304h1.192v1.192l-.224-.36q.232-.433.664-.664t.984-.232"/><path fill="url(#i)" d="M36.33 22v-.84l-.08-.184v-1.504q0-.4-.249-.624-.24-.224-.744-.224-.344 0-.68.112-.327.104-.56.288l-.448-.872a2.7 2.7 0 0 1 .848-.384q.496-.136 1.008-.136.985 0 1.528.464.544.465.544 1.448V22zm-1.313.064a2 2 0 0 1-.864-.168 1.34 1.34 0 0 1-.552-.472 1.2 1.2 0 0 1-.192-.664q0-.384.184-.672.192-.288.6-.448.408-.168 1.064-.168h1.144v.728h-1.008q-.44 0-.608.144a.46.46 0 0 0-.16.36q0 .24.184.384.193.136.52.136.312 0 .56-.144a.87.87 0 0 0 .36-.44l.192.576q-.136.416-.496.632t-.928.216"/><path fill="url(#j)" d="M38.627 22v-5.936h1.248V22z"/><path fill="url(#k)" d="M41.033 22v-4.304h1.248V22zm.624-4.904a.8.8 0 0 1-.56-.2.65.65 0 0 1-.216-.496q0-.296.216-.496.215-.2.56-.2.344 0 .56.192a.6.6 0 0 1 .216.48.7.7 0 0 1-.216.52q-.208.2-.56.2"/><path fill="url(#l)" d="M46.055 17.632q.513 0 .912.208.408.2.64.624.232.416.232 1.072V22h-1.248v-2.272q0-.52-.232-.768-.223-.248-.64-.248-.296 0-.536.128a.86.86 0 0 0-.368.376q-.128.256-.128.656V22H43.44v-4.304h1.192v1.192l-.224-.36q.232-.433.664-.664t.984-.232"/><path fill="url(#m)" d="M51.138 22.064q-.736 0-1.296-.288a2.14 2.14 0 0 1-.856-.784 2.17 2.17 0 0 1-.304-1.144q0-.648.296-1.144.303-.504.824-.784a2.4 2.4 0 0 1 1.176-.288q.632 0 1.136.272.511.264.808.768.296.495.296 1.192 0 .072-.008.168l-.016.168h-3.496v-.728h2.84l-.48.216q0-.336-.136-.584a.97.97 0 0 0-.376-.384 1.07 1.07 0 0 0-.56-.144 1.1 1.1 0 0 0-.568.144.95.95 0 0 0-.376.392q-.136.248-.136.592v.192q0 .353.152.624.16.264.44.408.288.136.672.136.345 0 .6-.104.264-.104.48-.312l.664.72a2 2 0 0 1-.744.52 2.8 2.8 0 0 1-1.032.176"/><path stroke="#000" stroke-linejoin="round" stroke-width="2" d="m7.455 22 2.496-5.6h1.28l2.504 5.6h-1.36l-2.048-4.944h.512L8.783 22zm1.248-1.2.344-.984h2.88l.352.984z" mask="url(#n)"/><path stroke="#000" stroke-linejoin="round" stroke-width="2" d="M16.037 22.064q-.607 0-1.096-.272a2.1 2.1 0 0 1-.776-.776q-.28-.495-.28-1.168 0-.68.28-1.176.287-.496.776-.768.488-.272 1.096-.272.544 0 .952.24t.632.728q.224.487.224 1.248 0 .752-.216 1.248a1.53 1.53 0 0 1-.624.728q-.4.24-.968.24Zm.216-1.024q.305 0 .552-.144t.392-.408q.152-.272.152-.64 0-.375-.152-.64a1.03 1.03 0 0 0-.392-.408 1.1 1.1 0 0 0-.552-.144q-.311 0-.56.144a1.1 1.1 0 0 0-.4.408 1.3 1.3 0 0 0-.144.64q0 .368.144.64.153.264.4.408t.56.144Zm1.128.96v-.88l.024-1.28-.08-1.272v-2.504h1.248V22z" mask="url(#n)"/><path stroke="#000" stroke-linejoin="round" stroke-width="2" d="M19.728 22v-4.304h1.192v1.216l-.168-.352q.192-.456.616-.688.424-.24 1.032-.24v1.152a2 2 0 0 0-.144-.008 1 1 0 0 0-.136-.008q-.511 0-.832.296-.312.288-.312.904V22z" mask="url(#n)"/><path stroke="#000" stroke-linejoin="round" stroke-width="2" d="M25.247 22.064q-.735 0-1.296-.288a2.14 2.14 0 0 1-.856-.784 2.17 2.17 0 0 1-.304-1.144q0-.648.296-1.144.304-.504.824-.784a2.4 2.4 0 0 1 1.176-.288q.633 0 1.136.272.511.264.808.768.297.495.296 1.192 0 .072-.008.168l-.016.168h-3.496v-.728h2.84l-.48.216q0-.336-.136-.584a.97.97 0 0 0-.376-.384 1.07 1.07 0 0 0-.56-.144 1.1 1.1 0 0 0-.568.144.95.95 0 0 0-.376.392q-.135.248-.136.592v.192q0 .353.152.624.16.264.44.408.288.136.672.136.345 0 .6-.104.264-.104.48-.312l.664.72a2 2 0 0 1-.744.52 2.8 2.8 0 0 1-1.032.176Z" mask="url(#n)"/><path stroke="#000" stroke-linejoin="round" stroke-width="2" d="M30.774 17.632q.511 0 .912.208.408.2.64.624.232.416.232 1.072V22H31.31v-2.272q0-.52-.232-.768-.225-.248-.64-.248-.296 0-.536.128a.87.87 0 0 0-.368.376q-.128.256-.128.656V22h-1.248v-4.304h1.192v1.192l-.224-.36q.232-.433.664-.664t.984-.232Z" mask="url(#n)"/><path stroke="#000" stroke-linejoin="round" stroke-width="2" d="M36.33 22v-.84l-.08-.184v-1.504q0-.4-.249-.624-.24-.224-.744-.224-.344 0-.68.112-.327.104-.56.288l-.448-.872a2.7 2.7 0 0 1 .848-.384q.496-.136 1.008-.136.985 0 1.528.464.544.465.544 1.448V22zm-1.313.064a2 2 0 0 1-.864-.168 1.34 1.34 0 0 1-.552-.472 1.2 1.2 0 0 1-.192-.664q0-.384.184-.672.192-.288.6-.448.408-.168 1.064-.168h1.144v.728h-1.008q-.44 0-.608.144a.46.46 0 0 0-.16.36q0 .24.184.384.193.136.52.136.312 0 .56-.144a.87.87 0 0 0 .36-.44l.192.576q-.136.416-.496.632t-.928.216Z" mask="url(#n)"/><path stroke="#000" stroke-linejoin="round" stroke-width="2" d="M38.627 22v-5.936h1.248V22z" mask="url(#n)"/><path stroke="#000" stroke-linejoin="round" stroke-width="2" d="M41.033 22v-4.304h1.248V22zm.624-4.904a.8.8 0 0 1-.56-.2.65.65 0 0 1-.216-.496q0-.296.216-.496.215-.2.56-.2.344 0 .56.192a.6.6 0 0 1 .216.48.7.7 0 0 1-.216.52q-.208.2-.56.2Z" mask="url(#n)"/><path stroke="#000" stroke-linejoin="round" stroke-width="2" d="M46.055 17.632q.513 0 .912.208.408.2.64.624.232.416.232 1.072V22h-1.248v-2.272q0-.52-.232-.768-.223-.248-.64-.248-.296 0-.536.128a.86.86 0 0 0-.368.376q-.128.256-.128.656V22H43.44v-4.304h1.192v1.192l-.224-.36q.232-.433.664-.664t.984-.232Z" mask="url(#n)"/><path stroke="#000" stroke-linejoin="round" stroke-width="2" d="M51.138 22.064q-.736 0-1.296-.288a2.14 2.14 0 0 1-.856-.784 2.17 2.17 0 0 1-.304-1.144q0-.648.296-1.144.303-.504.824-.784a2.4 2.4 0 0 1 1.176-.288q.632 0 1.136.272.511.264.808.768.296.495.296 1.192 0 .072-.008.168l-.016.168h-3.496v-.728h2.84l-.48.216q0-.336-.136-.584a.97.97 0 0 0-.376-.384 1.07 1.07 0 0 0-.56-.144 1.1 1.1 0 0 0-.568.144.95.95 0 0 0-.376.392q-.136.248-.136.592v.192q0 .353.152.624.16.264.44.408.288.136.672.136.345 0 .6-.104.264-.104.48-.312l.664.72a2 2 0 0 1-.744.52 2.8 2.8 0 0 1-1.032.176Z" mask="url(#n)"/></g><defs><linearGradient id="c" x1="48.008" x2="48.008" y1="11.33" y2="15.33" gradientUnits="userSpaceOnUse"><stop stop-color="#0f0"/><stop offset="1" stop-color="#af0"/></linearGradient><linearGradient id="d" x1="30.5" x2="30.5" y1="16" y2="22" gradientUnits="userSpaceOnUse"><stop stop-color="#0f0"/><stop offset="1" stop-color="#af0"/></linearGradient><linearGradient id="e" x1="30.5" x2="30.5" y1="16" y2="22" gradientUnits="userSpaceOnUse"><stop stop-color="#0f0"/><stop offset="1" stop-color="#af0"/></linearGradient><linearGradient id="f" x1="30.5" x2="30.5" y1="16" y2="22" gradientUnits="userSpaceOnUse"><stop stop-color="#0f0"/><stop offset="1" stop-color="#af0"/></linearGradient><linearGradient id="g" x1="30.5" x2="30.5" y1="16" y2="22" gradientUnits="userSpaceOnUse"><stop stop-color="#0f0"/><stop offset="1" stop-color="#af0"/></linearGradient><linearGradient id="h" x1="30.5" x2="30.5" y1="16" y2="22" gradientUnits="userSpaceOnUse"><stop stop-color="#0f0"/><stop offset="1" stop-color="#af0"/></linearGradient><linearGradient id="i" x1="30.5" x2="30.5" y1="16" y2="22" gradientUnits="userSpaceOnUse"><stop stop-color="#0f0"/><stop offset="1" stop-color="#af0"/></linearGradient><linearGradient id="j" x1="30.5" x2="30.5" y1="16" y2="22" gradientUnits="userSpaceOnUse"><stop stop-color="#0f0"/><stop offset="1" stop-color="#af0"/></linearGradient><linearGradient id="k" x1="30.5" x2="30.5" y1="16" y2="22" gradientUnits="userSpaceOnUse"><stop stop-color="#0f0"/><stop offset="1" stop-color="#af0"/></linearGradient><linearGradient id="l" x1="30.5" x2="30.5" y1="16" y2="22" gradientUnits="userSpaceOnUse"><stop stop-color="#0f0"/><stop offset="1" stop-color="#af0"/></linearGradient><linearGradient id="m" x1="30.5" x2="30.5" y1="16" y2="22" gradientUnits="userSpaceOnUse"><stop stop-color="#0f0"/><stop offset="1" stop-color="#af0"/></linearGradient><clipPath id="a"><path fill="#fff" d="M5.5 6h49v18h-49z"/></clipPath></defs></svg>