<svg xmlns="http://www.w3.org/2000/svg" width="16" height="16" fill="none" viewBox="0 0 16 16"><g clip-path="url(#a)"><path fill="#cbffee" d="M0 0h16v16H0z"/><circle cx="13.5" cy="12.5" r="2.5" fill="#e6ff66"/><circle cx="14.5" cy="4.5" r="3.5" fill="#6f9"/><circle cx="2" cy="7" r="3" fill="#fc6"/><rect width="3.125" height="7.125" x="7.151" y="3.902" fill="#fff" fill-opacity=".3" stroke="#000" stroke-width="1.125" rx="1.563" transform="rotate(15 7.15 3.902)"/><path fill="#000" d="m7.246 11.757.145-.544-1.086-.29-.146.542.543.146zm-1.604 1.64a.563.563 0 0 0 1.086.291l-.543-.145zm1.06-1.786-.543-.146-.517 1.932.543.146.543.145.518-1.931z"/><path stroke="#000" stroke-linecap="square" stroke-width="1.125" d="m9.032 2.918-.259.966"/><path stroke="#000" stroke-linecap="round" stroke-width="1.125" d="M10.964 3.435 7.1 2.4"/><mask id="b" width="4" height="7" x="6" y="4" maskUnits="userSpaceOnUse" style="mask-type:alpha"><rect width="2" height="6" x="7.548" y="4.591" fill="#fff" rx="1" transform="rotate(15 7.548 4.59)"/></mask><g mask="url(#b)"><path fill="url(#c)" d="M2.608 6.73h10v4h-10z"/></g></g><defs><linearGradient id="c" x1="7.608" x2="7.608" y1="6.73" y2="10.73" gradientUnits="userSpaceOnUse"><stop stop-color="#0f0"/><stop offset="1" stop-color="#af0"/></linearGradient><clipPath id="a"><rect width="16" height="16" fill="#fff" rx="2"/></clipPath></defs></svg>