<svg xmlns="http://www.w3.org/2000/svg" width="13" height="13" fill="none" viewBox="0 0 13 13"><rect width="3.125" height="7.125" x="5.851" y="2.502" fill="#fff" fill-opacity=".3" stroke="#000" stroke-width="1.125" rx="1.563" transform="rotate(15 5.85 2.502)"/><path fill="#000" d="m5.946 10.357.145-.544-1.086-.291-.146.543.543.146zm-1.604 1.64a.563.563 0 0 0 1.086.291l-.543-.145zm1.06-1.786-.543-.146-.517 1.932.543.146.543.145.518-1.931z"/><path stroke="#000" stroke-linecap="square" stroke-width="1.125" d="m7.732 1.518-.259.966"/><path stroke="#000" stroke-linecap="round" stroke-width="1.125" d="M9.664 2.035 5.8 1"/><mask id="a" width="4" height="7" x="4" y="3" maskUnits="userSpaceOnUse" style="mask-type:alpha"><rect width="2" height="6" x="6.248" y="3.191" fill="#fff" rx="1" transform="rotate(15 6.248 3.19)"/></mask><g mask="url(#a)"><path fill="url(#b)" d="M1.308 5.33h10v4h-10z"/></g><defs><linearGradient id="b" x1="6.308" x2="6.308" y1="5.33" y2="9.33" gradientUnits="userSpaceOnUse"><stop stop-color="#0f0"/><stop offset="1" stop-color="#af0"/></linearGradient></defs></svg>