<svg xmlns="http://www.w3.org/2000/svg" width="49" height="10" fill="none" viewBox="0 0 49 10"><g clip-path="url(#a)"><mask id="l" width="48" height="9" x=".955" y=".704" fill="#000" maskUnits="userSpaceOnUse"><path fill="#fff" d="M.955.704h48v9h-48z"/><path d="m1.955 8 2.496-5.6h1.28L8.235 8h-1.36L4.827 3.056h.512L3.283 8zm1.248-1.2.344-.984h2.88l.352.984zm7.334 1.264q-.607 0-1.096-.272a2.1 2.1 0 0 1-.776-.776q-.28-.495-.28-1.168 0-.68.28-1.176.287-.496.776-.768.488-.272 1.096-.272.544 0 .952.24t.632.728.224 1.248q0 .752-.216 1.248a1.53 1.53 0 0 1-.624.728q-.4.24-.968.24m.216-1.024q.305 0 .552-.144t.392-.408q.152-.272.152-.64 0-.375-.152-.64a1.03 1.03 0 0 0-.392-.408 1.1 1.1 0 0 0-.552-.144q-.311 0-.56.144a1.1 1.1 0 0 0-.4.408 1.3 1.3 0 0 0-.144.64q0 .368.144.64.153.264.4.408t.56.144m1.128.96v-.88l.024-1.28-.08-1.272V2.064h1.248V8zm2.347 0V3.696h1.192v1.216l-.168-.352q.193-.456.616-.688.425-.24 1.032-.24v1.152a2 2 0 0 0-.144-.008 1 1 0 0 0-.136-.008q-.511 0-.832.296-.312.288-.312.904V8zm5.519.064q-.735 0-1.296-.288a2.14 2.14 0 0 1-.856-.784 2.17 2.17 0 0 1-.304-1.144q0-.648.296-1.144.304-.504.824-.784a2.4 2.4 0 0 1 1.176-.288q.633 0 1.136.272.511.264.808.768.297.495.296 1.192 0 .072-.008.168l-.016.168h-3.496v-.728h2.84l-.48.216q0-.336-.136-.584a.97.97 0 0 0-.376-.384 1.07 1.07 0 0 0-.56-.144 1.1 1.1 0 0 0-.568.144.95.95 0 0 0-.376.392q-.136.248-.136.592v.192q0 .353.152.624.16.264.44.408.288.135.672.136.345 0 .6-.104.264-.104.48-.312l.664.72a2 2 0 0 1-.744.52 2.8 2.8 0 0 1-1.032.176m5.527-4.432q.511 0 .912.208.408.2.64.624.232.416.232 1.072V8H25.81V5.728q0-.52-.232-.768-.225-.248-.64-.248-.296 0-.536.128a.87.87 0 0 0-.368.376q-.128.256-.128.656V8h-1.248V3.696h1.192v1.192l-.224-.36q.232-.433.664-.664t.984-.232M30.83 8v-.84l-.08-.184V5.472q0-.4-.249-.624-.24-.224-.744-.224-.344 0-.68.112-.327.104-.56.288l-.448-.872q.353-.248.848-.384.496-.136 1.008-.136.984 0 1.528.464t.544 1.448V8zm-1.313.064a2 2 0 0 1-.864-.168 1.34 1.34 0 0 1-.552-.472 1.2 1.2 0 0 1-.192-.664q0-.384.184-.672.192-.288.6-.448.408-.168 1.064-.168h1.144V6.2h-1.008q-.44 0-.608.144a.46.46 0 0 0-.16.36q0 .24.184.384.193.135.52.136.312 0 .56-.144a.87.87 0 0 0 .36-.44l.192.576q-.136.416-.496.632t-.928.216M33.127 8V2.064h1.248V8zm2.406 0V3.696h1.248V8zm.624-4.904a.8.8 0 0 1-.56-.2.65.65 0 0 1-.216-.496q0-.296.216-.496.215-.2.56-.2.344 0 .56.192a.6.6 0 0 1 .216.48.7.7 0 0 1-.216.52q-.208.2-.56.2m4.398.536q.513 0 .912.208.408.2.64.624.232.416.232 1.072V8h-1.248V5.728q0-.52-.232-.768-.224-.248-.64-.248a1.1 1.1 0 0 0-.536.128.87.87 0 0 0-.368.376q-.128.256-.128.656V8H37.94V3.696h1.192v1.192l-.224-.36q.232-.433.664-.664t.984-.232m5.082 4.432q-.736 0-1.296-.288a2.14 2.14 0 0 1-.856-.784 2.17 2.17 0 0 1-.304-1.144q0-.648.296-1.144.303-.504.824-.784a2.4 2.4 0 0 1 1.176-.288q.632 0 1.136.272.511.264.808.768.296.495.296 1.192 0 .072-.008.168l-.016.168h-3.496v-.728h2.84l-.48.216q0-.336-.136-.584a.97.97 0 0 0-.376-.384 1.07 1.07 0 0 0-.56-.144 1.1 1.1 0 0 0-.568.144.95.95 0 0 0-.376.392q-.136.248-.136.592v.192q0 .353.152.624.16.264.44.408.288.135.672.136.345 0 .6-.104a1.5 1.5 0 0 0 .48-.312l.664.72a2 2 0 0 1-.744.52 2.8 2.8 0 0 1-1.032.176"/></mask><path fill="url(#b)" d="m1.955 8 2.496-5.6h1.28L8.235 8h-1.36L4.827 3.056h.512L3.283 8zm1.248-1.2.344-.984h2.88l.352.984z"/><path fill="url(#c)" d="M10.537 8.064q-.607 0-1.096-.272a2.1 2.1 0 0 1-.776-.776q-.28-.495-.28-1.168 0-.68.28-1.176.287-.496.776-.768.488-.272 1.096-.272.544 0 .952.24t.632.728.224 1.248q0 .752-.216 1.248a1.53 1.53 0 0 1-.624.728q-.4.24-.968.24m.216-1.024q.305 0 .552-.144t.392-.408q.152-.272.152-.64 0-.375-.152-.64a1.03 1.03 0 0 0-.392-.408 1.1 1.1 0 0 0-.552-.144q-.311 0-.56.144a1.1 1.1 0 0 0-.4.408 1.3 1.3 0 0 0-.144.64q0 .368.144.64.153.264.4.408t.56.144m1.128.96v-.88l.024-1.28-.08-1.272V2.064h1.248V8z"/><path fill="url(#d)" d="M14.228 8V3.696h1.192v1.216l-.168-.352q.193-.456.616-.688.425-.24 1.032-.24v1.152a2 2 0 0 0-.144-.008 1 1 0 0 0-.136-.008q-.511 0-.832.296-.312.288-.312.904V8z"/><path fill="url(#e)" d="M19.747 8.064q-.735 0-1.296-.288a2.14 2.14 0 0 1-.856-.784 2.17 2.17 0 0 1-.304-1.144q0-.648.296-1.144.304-.504.824-.784a2.4 2.4 0 0 1 1.176-.288q.633 0 1.136.272.511.264.808.768.297.495.296 1.192 0 .072-.008.168l-.016.168h-3.496v-.728h2.84l-.48.216q0-.336-.136-.584a.97.97 0 0 0-.376-.384 1.07 1.07 0 0 0-.56-.144 1.1 1.1 0 0 0-.568.144.95.95 0 0 0-.376.392q-.136.248-.136.592v.192q0 .353.152.624.16.264.44.408.288.135.672.136.345 0 .6-.104.264-.104.48-.312l.664.72a2 2 0 0 1-.744.52 2.8 2.8 0 0 1-1.032.176"/><path fill="url(#f)" d="M25.274 3.632q.511 0 .912.208.408.2.64.624.232.416.232 1.072V8H25.81V5.728q0-.52-.232-.768-.225-.248-.64-.248-.296 0-.536.128a.87.87 0 0 0-.368.376q-.128.256-.128.656V8h-1.248V3.696h1.192v1.192l-.224-.36q.232-.433.664-.664t.984-.232"/><path fill="url(#g)" d="M30.83 8v-.84l-.08-.184V5.472q0-.4-.249-.624-.24-.224-.744-.224-.344 0-.68.112-.327.104-.56.288l-.448-.872q.353-.248.848-.384.496-.136 1.008-.136.984 0 1.528.464t.544 1.448V8zm-1.313.064a2 2 0 0 1-.864-.168 1.34 1.34 0 0 1-.552-.472 1.2 1.2 0 0 1-.192-.664q0-.384.184-.672.192-.288.6-.448.408-.168 1.064-.168h1.144V6.2h-1.008q-.44 0-.608.144a.46.46 0 0 0-.16.36q0 .24.184.384.193.135.52.136.312 0 .56-.144a.87.87 0 0 0 .36-.44l.192.576q-.136.416-.496.632t-.928.216"/><path fill="url(#h)" d="M33.127 8V2.064h1.248V8z"/><path fill="url(#i)" d="M35.533 8V3.696h1.248V8zm.624-4.904a.8.8 0 0 1-.56-.2.65.65 0 0 1-.216-.496q0-.296.216-.496.215-.2.56-.2.344 0 .56.192a.6.6 0 0 1 .216.48.7.7 0 0 1-.216.52q-.208.2-.56.2"/><path fill="url(#j)" d="M40.555 3.632q.513 0 .912.208.408.2.64.624.232.416.232 1.072V8h-1.248V5.728q0-.52-.232-.768-.224-.248-.64-.248a1.1 1.1 0 0 0-.536.128.87.87 0 0 0-.368.376q-.128.256-.128.656V8H37.94V3.696h1.192v1.192l-.224-.36q.232-.433.664-.664t.984-.232"/><path fill="url(#k)" d="M45.638 8.064q-.736 0-1.296-.288a2.14 2.14 0 0 1-.856-.784 2.17 2.17 0 0 1-.304-1.144q0-.648.296-1.144.303-.504.824-.784a2.4 2.4 0 0 1 1.176-.288q.632 0 1.136.272.511.264.808.768.296.495.296 1.192 0 .072-.008.168l-.016.168h-3.496v-.728h2.84l-.48.216q0-.336-.136-.584a.97.97 0 0 0-.376-.384 1.07 1.07 0 0 0-.56-.144 1.1 1.1 0 0 0-.568.144.95.95 0 0 0-.376.392q-.136.248-.136.592v.192q0 .353.152.624.16.264.44.408.288.135.672.136.345 0 .6-.104a1.5 1.5 0 0 0 .48-.312l.664.72a2 2 0 0 1-.744.52 2.8 2.8 0 0 1-1.032.176"/><path stroke="#000" stroke-linejoin="round" stroke-width="2" d="m1.955 8 2.496-5.6h1.28L8.235 8h-1.36L4.827 3.056h.512L3.283 8zm1.248-1.2.344-.984h2.88l.352.984z" mask="url(#l)"/><path stroke="#000" stroke-linejoin="round" stroke-width="2" d="M10.537 8.064q-.607 0-1.096-.272a2.1 2.1 0 0 1-.776-.776q-.28-.495-.28-1.168 0-.68.28-1.176.287-.496.776-.768.488-.272 1.096-.272.544 0 .952.24t.632.728.224 1.248q0 .752-.216 1.248a1.53 1.53 0 0 1-.624.728q-.4.24-.968.24Zm.216-1.024q.305 0 .552-.144t.392-.408q.152-.272.152-.64 0-.375-.152-.64a1.03 1.03 0 0 0-.392-.408 1.1 1.1 0 0 0-.552-.144q-.311 0-.56.144a1.1 1.1 0 0 0-.4.408 1.3 1.3 0 0 0-.144.64q0 .368.144.64.153.264.4.408t.56.144Zm1.128.96v-.88l.024-1.28-.08-1.272V2.064h1.248V8z" mask="url(#l)"/><path stroke="#000" stroke-linejoin="round" stroke-width="2" d="M14.228 8V3.696h1.192v1.216l-.168-.352q.193-.456.616-.688.425-.24 1.032-.24v1.152a2 2 0 0 0-.144-.008 1 1 0 0 0-.136-.008q-.511 0-.832.296-.312.288-.312.904V8z" mask="url(#l)"/><path stroke="#000" stroke-linejoin="round" stroke-width="2" d="M19.747 8.064q-.735 0-1.296-.288a2.14 2.14 0 0 1-.856-.784 2.17 2.17 0 0 1-.304-1.144q0-.648.296-1.144.304-.504.824-.784a2.4 2.4 0 0 1 1.176-.288q.633 0 1.136.272.511.264.808.768.297.495.296 1.192 0 .072-.008.168l-.016.168h-3.496v-.728h2.84l-.48.216q0-.336-.136-.584a.97.97 0 0 0-.376-.384 1.07 1.07 0 0 0-.56-.144 1.1 1.1 0 0 0-.568.144.95.95 0 0 0-.376.392q-.136.248-.136.592v.192q0 .353.152.624.16.264.44.408.288.135.672.136.345 0 .6-.104.264-.104.48-.312l.664.72a2 2 0 0 1-.744.52 2.8 2.8 0 0 1-1.032.176Z" mask="url(#l)"/><path stroke="#000" stroke-linejoin="round" stroke-width="2" d="M25.274 3.632q.511 0 .912.208.408.2.64.624.232.416.232 1.072V8H25.81V5.728q0-.52-.232-.768-.225-.248-.64-.248-.296 0-.536.128a.87.87 0 0 0-.368.376q-.128.256-.128.656V8h-1.248V3.696h1.192v1.192l-.224-.36q.232-.433.664-.664t.984-.232Z" mask="url(#l)"/><path stroke="#000" stroke-linejoin="round" stroke-width="2" d="M30.83 8v-.84l-.08-.184V5.472q0-.4-.249-.624-.24-.224-.744-.224-.344 0-.68.112-.327.104-.56.288l-.448-.872q.353-.248.848-.384.496-.136 1.008-.136.984 0 1.528.464t.544 1.448V8zm-1.313.064a2 2 0 0 1-.864-.168 1.34 1.34 0 0 1-.552-.472 1.2 1.2 0 0 1-.192-.664q0-.384.184-.672.192-.288.6-.448.408-.168 1.064-.168h1.144V6.2h-1.008q-.44 0-.608.144a.46.46 0 0 0-.16.36q0 .24.184.384.193.135.52.136.312 0 .56-.144a.87.87 0 0 0 .36-.44l.192.576q-.136.416-.496.632t-.928.216Z" mask="url(#l)"/><path stroke="#000" stroke-linejoin="round" stroke-width="2" d="M33.127 8V2.064h1.248V8z" mask="url(#l)"/><path stroke="#000" stroke-linejoin="round" stroke-width="2" d="M35.533 8V3.696h1.248V8zm.624-4.904a.8.8 0 0 1-.56-.2.65.65 0 0 1-.216-.496q0-.296.216-.496.215-.2.56-.2.344 0 .56.192a.6.6 0 0 1 .216.48.7.7 0 0 1-.216.52q-.208.2-.56.2Z" mask="url(#l)"/><path stroke="#000" stroke-linejoin="round" stroke-width="2" d="M40.555 3.632q.513 0 .912.208.408.2.64.624.232.416.232 1.072V8h-1.248V5.728q0-.52-.232-.768-.224-.248-.64-.248a1.1 1.1 0 0 0-.536.128.87.87 0 0 0-.368.376q-.128.256-.128.656V8H37.94V3.696h1.192v1.192l-.224-.36q.232-.433.664-.664t.984-.232Z" mask="url(#l)"/><path stroke="#000" stroke-linejoin="round" stroke-width="2" d="M45.638 8.064q-.736 0-1.296-.288a2.14 2.14 0 0 1-.856-.784 2.17 2.17 0 0 1-.304-1.144q0-.648.296-1.144.303-.504.824-.784a2.4 2.4 0 0 1 1.176-.288q.632 0 1.136.272.511.264.808.768.296.495.296 1.192 0 .072-.008.168l-.016.168h-3.496v-.728h2.84l-.48.216q0-.336-.136-.584a.97.97 0 0 0-.376-.384 1.07 1.07 0 0 0-.56-.144 1.1 1.1 0 0 0-.568.144.95.95 0 0 0-.376.392q-.136.248-.136.592v.192q0 .353.152.624.16.264.44.408.288.135.672.136.345 0 .6-.104a1.5 1.5 0 0 0 .48-.312l.664.72a2 2 0 0 1-.744.52 2.8 2.8 0 0 1-1.032.176Z" mask="url(#l)"/></g><defs><linearGradient id="b" x1="25" x2="25" y1="2" y2="8" gradientUnits="userSpaceOnUse"><stop stop-color="#0f0"/><stop offset="1" stop-color="#af0"/></linearGradient><linearGradient id="c" x1="25" x2="25" y1="2" y2="8" gradientUnits="userSpaceOnUse"><stop stop-color="#0f0"/><stop offset="1" stop-color="#af0"/></linearGradient><linearGradient id="d" x1="25" x2="25" y1="2" y2="8" gradientUnits="userSpaceOnUse"><stop stop-color="#0f0"/><stop offset="1" stop-color="#af0"/></linearGradient><linearGradient id="e" x1="25" x2="25" y1="2" y2="8" gradientUnits="userSpaceOnUse"><stop stop-color="#0f0"/><stop offset="1" stop-color="#af0"/></linearGradient><linearGradient id="f" x1="25" x2="25" y1="2" y2="8" gradientUnits="userSpaceOnUse"><stop stop-color="#0f0"/><stop offset="1" stop-color="#af0"/></linearGradient><linearGradient id="g" x1="25" x2="25" y1="2" y2="8" gradientUnits="userSpaceOnUse"><stop stop-color="#0f0"/><stop offset="1" stop-color="#af0"/></linearGradient><linearGradient id="h" x1="25" x2="25" y1="2" y2="8" gradientUnits="userSpaceOnUse"><stop stop-color="#0f0"/><stop offset="1" stop-color="#af0"/></linearGradient><linearGradient id="i" x1="25" x2="25" y1="2" y2="8" gradientUnits="userSpaceOnUse"><stop stop-color="#0f0"/><stop offset="1" stop-color="#af0"/></linearGradient><linearGradient id="j" x1="25" x2="25" y1="2" y2="8" gradientUnits="userSpaceOnUse"><stop stop-color="#0f0"/><stop offset="1" stop-color="#af0"/></linearGradient><linearGradient id="k" x1="25" x2="25" y1="2" y2="8" gradientUnits="userSpaceOnUse"><stop stop-color="#0f0"/><stop offset="1" stop-color="#af0"/></linearGradient><clipPath id="a"><path fill="#fff" d="M0 0h49v10H0z"/></clipPath></defs></svg>