<svg xmlns="http://www.w3.org/2000/svg" width="60" height="30" fill="none" viewBox="0 0 60 30"><g clip-path="url(#a)"><path fill="#fcc" d="M0 0h60v30H0z"/><path fill="#f66" d="m38.304.132 11.918 8.564-13.375 6.04z"/><path fill="#ffb366" d="m42.662 17.985 1.58 11.437-10.694-4.35z"/><path fill="#ff6" d="m13.596 6.266 7.153 9.063-11.424 1.663z"/><g filter="url(#b)"><g filter="url(#c)"><path fill="url(#d)" d="M39.4 10.61h1v8h-1z"/></g><mask id="e" width="19" height="18" x="35" y="5" maskUnits="userSpaceOnUse" style="mask-type:alpha"><path fill="#d9d9d9" d="m35.863 12.854 11.194-7.085 6.311 9.97-11.194 7.086z"/></mask><g mask="url(#e)"><rect width="3.054" height="11.359" x="38.831" y="8.897" fill="#fff" fill-opacity=".3" stroke="#000" stroke-width="1.125" rx="1.527" transform="rotate(-32.328 38.83 8.897)"/></g><mask id="f" width="8" height="10" x="39" y="8" maskUnits="userSpaceOnUse" style="mask-type:alpha"><rect width="1.929" height="10.38" x="39.529" y="8.949" fill="#fff" rx=".964" transform="rotate(-32.328 39.53 8.949)"/></mask><g mask="url(#f)"><path fill="url(#g)" d="M38.647 10.077h11.822v8.598H38.647z"/></g><mask id="p" width="37" height="9" x="11.346" y="12.704" fill="#000" maskUnits="userSpaceOnUse"><path fill="#fff" d="M11.346 12.704h37v9h-37z"/><path d="m12.346 20 2.496-5.6h1.28l2.504 5.6h-1.36l-2.048-4.944h.512L13.674 20zm1.248-1.2.344-.984h2.88l.352.984zm7.334 1.264q-.607 0-1.096-.272a2.1 2.1 0 0 1-.776-.776q-.28-.495-.28-1.168 0-.68.28-1.176.288-.496.776-.768.487-.272 1.096-.272.544 0 .952.24t.632.728q.224.487.224 1.248 0 .752-.216 1.248a1.53 1.53 0 0 1-.624.728q-.4.24-.968.24m.216-1.024q.304 0 .552-.144t.392-.408q.152-.272.152-.64 0-.375-.152-.64a1.03 1.03 0 0 0-.392-.408 1.1 1.1 0 0 0-.552-.144q-.312 0-.56.144a1.1 1.1 0 0 0-.4.408 1.3 1.3 0 0 0-.144.64q0 .368.144.64.152.264.4.408t.56.144m1.128.96v-.88l.024-1.28-.08-1.272v-2.504h1.248V20zm4.195.064q-.607 0-1.096-.272a2.1 2.1 0 0 1-.776-.776q-.28-.495-.28-1.168 0-.68.28-1.176.287-.496.776-.768.487-.272 1.096-.272.544 0 .952.24t.632.728q.224.487.224 1.248 0 .752-.216 1.248a1.53 1.53 0 0 1-.624.728q-.4.24-.968.24m.216-1.024q.305 0 .552-.144t.392-.408q.152-.272.152-.64 0-.375-.152-.64a1.03 1.03 0 0 0-.392-.408 1.1 1.1 0 0 0-.552-.144q-.312 0-.56.144a1.1 1.1 0 0 0-.4.408 1.3 1.3 0 0 0-.144.64q0 .368.144.64.152.264.4.408t.56.144m1.128.96v-.88l.024-1.28-.08-1.272v-2.504h1.248V20zm2.347 0v-4.304h1.248V20zm.624-4.904a.8.8 0 0 1-.56-.2.65.65 0 0 1-.216-.496q0-.296.216-.496.215-.2.56-.2t.56.192a.6.6 0 0 1 .216.48.7.7 0 0 1-.216.52q-.208.2-.56.2m3.542 4.968q-.76 0-1.184-.384-.423-.392-.424-1.16v-3.776h1.248v3.76q0 .272.144.424a.53.53 0 0 0 .392.144.8.8 0 0 0 .504-.16l.336.88q-.191.136-.464.208-.264.064-.552.064m-2.272-3.312v-.96h2.984v.96zM36.04 20v-4.304h1.249V20zm.625-4.904a.8.8 0 0 1-.56-.2.65.65 0 0 1-.216-.496q0-.296.216-.496.215-.2.56-.2.344 0 .56.192a.6.6 0 0 1 .216.48.7.7 0 0 1-.216.52q-.208.2-.56.2M39.615 20l-1.808-4.304h1.288L40.6 19.4h-.64l1.56-3.704h1.2L40.903 20zm5.632.064q-.735 0-1.296-.288a2.14 2.14 0 0 1-.856-.784 2.17 2.17 0 0 1-.304-1.144q0-.648.296-1.144.304-.504.824-.784a2.4 2.4 0 0 1 1.176-.288q.632 0 1.136.272.512.264.808.768.296.495.296 1.192 0 .072-.008.168l-.016.168h-3.496v-.728h2.84l-.48.216q0-.336-.136-.584a.97.97 0 0 0-.376-.384 1.07 1.07 0 0 0-.56-.144 1.1 1.1 0 0 0-.568.144.95.95 0 0 0-.376.392q-.135.248-.136.592v.192q0 .353.152.624.16.264.44.408.288.136.672.136.345 0 .6-.104.264-.104.48-.312l.664.72a2 2 0 0 1-.744.52 2.8 2.8 0 0 1-1.032.176"/></mask><path fill="url(#h)" d="m12.346 20 2.496-5.6h1.28l2.504 5.6h-1.36l-2.048-4.944h.512L13.674 20zm1.248-1.2.344-.984h2.88l.352.984z"/><path fill="url(#i)" d="M20.928 20.064q-.607 0-1.096-.272a2.1 2.1 0 0 1-.776-.776q-.28-.495-.28-1.168 0-.68.28-1.176.288-.496.776-.768.487-.272 1.096-.272.544 0 .952.24t.632.728q.224.487.224 1.248 0 .752-.216 1.248a1.53 1.53 0 0 1-.624.728q-.4.24-.968.24m.216-1.024q.304 0 .552-.144t.392-.408q.152-.272.152-.64 0-.375-.152-.64a1.03 1.03 0 0 0-.392-.408 1.1 1.1 0 0 0-.552-.144q-.312 0-.56.144a1.1 1.1 0 0 0-.4.408 1.3 1.3 0 0 0-.144.64q0 .368.144.64.152.264.4.408t.56.144m1.128.96v-.88l.024-1.28-.08-1.272v-2.504h1.248V20z"/><path fill="url(#j)" d="M26.467 20.064q-.607 0-1.096-.272a2.1 2.1 0 0 1-.776-.776q-.28-.495-.28-1.168 0-.68.28-1.176.287-.496.776-.768.487-.272 1.096-.272.544 0 .952.24t.632.728q.224.487.224 1.248 0 .752-.216 1.248a1.53 1.53 0 0 1-.624.728q-.4.24-.968.24m.216-1.024q.305 0 .552-.144t.392-.408q.152-.272.152-.64 0-.375-.152-.64a1.03 1.03 0 0 0-.392-.408 1.1 1.1 0 0 0-.552-.144q-.312 0-.56.144a1.1 1.1 0 0 0-.4.408 1.3 1.3 0 0 0-.144.64q0 .368.144.64.152.264.4.408t.56.144m1.128.96v-.88l.024-1.28-.08-1.272v-2.504h1.248V20z"/><path fill="url(#k)" d="M30.158 20v-4.304h1.248V20zm.624-4.904a.8.8 0 0 1-.56-.2.65.65 0 0 1-.216-.496q0-.296.216-.496.215-.2.56-.2t.56.192a.6.6 0 0 1 .216.48.7.7 0 0 1-.216.52q-.208.2-.56.2"/><path fill="url(#l)" d="M34.324 20.064q-.76 0-1.184-.384-.423-.392-.424-1.16v-3.776h1.248v3.76q0 .272.144.424a.53.53 0 0 0 .392.144.8.8 0 0 0 .504-.16l.336.88q-.191.136-.464.208-.264.064-.552.064m-2.272-3.312v-.96h2.984v.96z"/><path fill="url(#m)" d="M36.04 20v-4.304h1.249V20zm.625-4.904a.8.8 0 0 1-.56-.2.65.65 0 0 1-.216-.496q0-.296.216-.496.215-.2.56-.2.344 0 .56.192a.6.6 0 0 1 .216.48.7.7 0 0 1-.216.52q-.208.2-.56.2"/><path fill="url(#n)" d="m39.615 20-1.808-4.304h1.288L40.6 19.4h-.64l1.56-3.704h1.2L40.903 20z"/><path fill="url(#o)" d="M45.247 20.064q-.735 0-1.296-.288a2.14 2.14 0 0 1-.856-.784 2.17 2.17 0 0 1-.304-1.144q0-.648.296-1.144.304-.504.824-.784a2.4 2.4 0 0 1 1.176-.288q.632 0 1.136.272.512.264.808.768.296.495.296 1.192 0 .072-.008.168l-.016.168h-3.496v-.728h2.84l-.48.216q0-.336-.136-.584a.97.97 0 0 0-.376-.384 1.07 1.07 0 0 0-.56-.144 1.1 1.1 0 0 0-.568.144.95.95 0 0 0-.376.392q-.135.248-.136.592v.192q0 .353.152.624.16.264.44.408.288.136.672.136.345 0 .6-.104.264-.104.48-.312l.664.72a2 2 0 0 1-.744.52 2.8 2.8 0 0 1-1.032.176"/><path stroke="#000" stroke-linejoin="round" stroke-width="2" d="m12.346 20 2.496-5.6h1.28l2.504 5.6h-1.36l-2.048-4.944h.512L13.674 20zm1.248-1.2.344-.984h2.88l.352.984z" mask="url(#p)"/><path stroke="#000" stroke-linejoin="round" stroke-width="2" d="M20.928 20.064q-.607 0-1.096-.272a2.1 2.1 0 0 1-.776-.776q-.28-.495-.28-1.168 0-.68.28-1.176.288-.496.776-.768.487-.272 1.096-.272.544 0 .952.24t.632.728q.224.487.224 1.248 0 .752-.216 1.248a1.53 1.53 0 0 1-.624.728q-.4.24-.968.24Zm.216-1.024q.304 0 .552-.144t.392-.408q.152-.272.152-.64 0-.375-.152-.64a1.03 1.03 0 0 0-.392-.408 1.1 1.1 0 0 0-.552-.144q-.312 0-.56.144a1.1 1.1 0 0 0-.4.408 1.3 1.3 0 0 0-.144.64q0 .368.144.64.152.264.4.408t.56.144Zm1.128.96v-.88l.024-1.28-.08-1.272v-2.504h1.248V20z" mask="url(#p)"/><path stroke="#000" stroke-linejoin="round" stroke-width="2" d="M26.467 20.064q-.607 0-1.096-.272a2.1 2.1 0 0 1-.776-.776q-.28-.495-.28-1.168 0-.68.28-1.176.287-.496.776-.768.487-.272 1.096-.272.544 0 .952.24t.632.728q.224.487.224 1.248 0 .752-.216 1.248a1.53 1.53 0 0 1-.624.728q-.4.24-.968.24Zm.216-1.024q.305 0 .552-.144t.392-.408q.152-.272.152-.64 0-.375-.152-.64a1.03 1.03 0 0 0-.392-.408 1.1 1.1 0 0 0-.552-.144q-.312 0-.56.144a1.1 1.1 0 0 0-.4.408 1.3 1.3 0 0 0-.144.64q0 .368.144.64.152.264.4.408t.56.144Zm1.128.96v-.88l.024-1.28-.08-1.272v-2.504h1.248V20z" mask="url(#p)"/><path stroke="#000" stroke-linejoin="round" stroke-width="2" d="M30.158 20v-4.304h1.248V20zm.624-4.904a.8.8 0 0 1-.56-.2.65.65 0 0 1-.216-.496q0-.296.216-.496.215-.2.56-.2t.56.192a.6.6 0 0 1 .216.48.7.7 0 0 1-.216.52q-.208.2-.56.2Z" mask="url(#p)"/><path stroke="#000" stroke-linejoin="round" stroke-width="2" d="M34.324 20.064q-.76 0-1.184-.384-.423-.392-.424-1.16v-3.776h1.248v3.76q0 .272.144.424a.53.53 0 0 0 .392.144.8.8 0 0 0 .504-.16l.336.88q-.191.136-.464.208-.264.064-.552.064Zm-2.272-3.312v-.96h2.984v.96z" mask="url(#p)"/><path stroke="#000" stroke-linejoin="round" stroke-width="2" d="M36.04 20v-4.304h1.249V20zm.625-4.904a.8.8 0 0 1-.56-.2.65.65 0 0 1-.216-.496q0-.296.216-.496.215-.2.56-.2.344 0 .56.192a.6.6 0 0 1 .216.48.7.7 0 0 1-.216.52q-.208.2-.56.2Z" mask="url(#p)"/><path stroke="#000" stroke-linejoin="round" stroke-width="2" d="m39.615 20-1.808-4.304h1.288L40.6 19.4h-.64l1.56-3.704h1.2L40.903 20z" mask="url(#p)"/><path stroke="#000" stroke-linejoin="round" stroke-width="2" d="M45.247 20.064q-.735 0-1.296-.288a2.14 2.14 0 0 1-.856-.784 2.17 2.17 0 0 1-.304-1.144q0-.648.296-1.144.304-.504.824-.784a2.4 2.4 0 0 1 1.176-.288q.632 0 1.136.272.512.264.808.768.296.495.296 1.192 0 .072-.008.168l-.016.168h-3.496v-.728h2.84l-.48.216q0-.336-.136-.584a.97.97 0 0 0-.376-.384 1.07 1.07 0 0 0-.56-.144 1.1 1.1 0 0 0-.568.144.95.95 0 0 0-.376.392q-.135.248-.136.592v.192q0 .353.152.624.16.264.44.408.288.136.672.136.345 0 .6-.104.264-.104.48-.312l.664.72a2 2 0 0 1-.744.52 2.8 2.8 0 0 1-1.032.176Z" mask="url(#p)"/></g></g><defs><linearGradient id="d" x1="39.9" x2="39.9" y1="10.61" y2="18.61" gradientUnits="userSpaceOnUse"><stop stop-color="#ff8000"/><stop offset="1" stop-color="red"/></linearGradient><linearGradient id="g" x1="44.558" x2="44.558" y1="10.077" y2="18.675" gradientUnits="userSpaceOnUse"><stop stop-color="#ff8000"/><stop offset="1" stop-color="red"/></linearGradient><linearGradient id="h" x1="30" x2="30" y1="14.9" y2="19.1" gradientUnits="userSpaceOnUse"><stop stop-color="#ff8000"/><stop offset="1" stop-color="red"/></linearGradient><linearGradient id="i" x1="30" x2="30" y1="14.9" y2="19.1" gradientUnits="userSpaceOnUse"><stop stop-color="#ff8000"/><stop offset="1" stop-color="red"/></linearGradient><linearGradient id="j" x1="30" x2="30" y1="14.9" y2="19.1" gradientUnits="userSpaceOnUse"><stop stop-color="#ff8000"/><stop offset="1" stop-color="red"/></linearGradient><linearGradient id="k" x1="30" x2="30" y1="14.9" y2="19.1" gradientUnits="userSpaceOnUse"><stop stop-color="#ff8000"/><stop offset="1" stop-color="red"/></linearGradient><linearGradient id="l" x1="30" x2="30" y1="14.9" y2="19.1" gradientUnits="userSpaceOnUse"><stop stop-color="#ff8000"/><stop offset="1" stop-color="red"/></linearGradient><linearGradient id="m" x1="30" x2="30" y1="14.9" y2="19.1" gradientUnits="userSpaceOnUse"><stop stop-color="#ff8000"/><stop offset="1" stop-color="red"/></linearGradient><linearGradient id="n" x1="30" x2="30" y1="14.9" y2="19.1" gradientUnits="userSpaceOnUse"><stop stop-color="#ff8000"/><stop offset="1" stop-color="red"/></linearGradient><linearGradient id="o" x1="30" x2="30" y1="14.9" y2="19.1" gradientUnits="userSpaceOnUse"><stop stop-color="#ff8000"/><stop offset="1" stop-color="red"/></linearGradient><filter id="b" width="46" height="22.719" x="7" y="3.281" color-interpolation-filters="sRGB" filterUnits="userSpaceOnUse"><feFlood flood-opacity="0" result="BackgroundImageFix"/><feColorMatrix in="SourceAlpha" result="hardAlpha" values="0 0 0 0 0 0 0 0 0 0 0 0 0 0 0 0 0 0 127 0"/><feOffset/><feGaussianBlur stdDeviation="2"/><feComposite in2="hardAlpha" operator="out"/><feColorMatrix values="0 0 0 0 1 0 0 0 0 1 0 0 0 0 1 0 0 0 0.25 0"/><feBlend in2="BackgroundImageFix" result="effect1_dropShadow_2211_244"/><feBlend in="SourceGraphic" in2="effect1_dropShadow_2211_244" result="shape"/></filter><filter id="c" width="3" height="10" x="38.4" y="10.11" color-interpolation-filters="sRGB" filterUnits="userSpaceOnUse"><feFlood flood-opacity="0" result="BackgroundImageFix"/><feColorMatrix in="SourceAlpha" result="hardAlpha" values="0 0 0 0 0 0 0 0 0 0 0 0 0 0 0 0 0 0 127 0"/><feOffset dy=".5"/><feGaussianBlur stdDeviation=".5"/><feComposite in2="hardAlpha" operator="out"/><feColorMatrix values="0 0 0 0 0 0 0 0 0 0 0 0 0 0 0 0 0 0 0.35 0"/><feBlend in2="BackgroundImageFix" result="effect1_dropShadow_2211_244"/><feBlend in="SourceGraphic" in2="effect1_dropShadow_2211_244" result="shape"/></filter><clipPath id="a"><path fill="#fff" d="M0 0h60v30H0z"/></clipPath></defs></svg>