<svg xmlns="http://www.w3.org/2000/svg" width="16" height="16" fill="none" viewBox="0 0 16 16"><g clip-path="url(#a)"><path fill="#fcc" d="M0 0h16v16H0z"/><mask id="b" width="16" height="15" x="1" y="1" maskUnits="userSpaceOnUse" style="mask-type:alpha"><path fill="#d9d9d9" d="M1.065 4.22 14.12 1.97l2.005 11.628-13.056 2.25z"/></mask><g mask="url(#b)"><rect width="3.059" height="11.364" x="5.32" y="1.702" fill="#fff" fill-opacity=".3" stroke="#000" stroke-width="1.13" rx="1.529" transform="rotate(-9.777 5.32 1.702)"/></g><mask id="c" width="4" height="12" x="6" y="1" maskUnits="userSpaceOnUse" style="mask-type:alpha"><rect width="1.929" height="10.38" x="5.948" y="2.019" fill="#fff" rx=".964" transform="rotate(-9.777 5.948 2.02)"/></mask><g mask="url(#c)"><path fill="url(#d)" d="M2.677 4.68h11.822v8.598H2.677z"/></g><path fill="#f66" d="m12.101.852 6.33 4.548-7.104 3.208z"/><path fill="#ffb366" d="m14.947 10.334.84 6.074-5.68-2.31z"/><path fill="#ff6" d="m1.103 4.11 3.8 4.813-6.069.884z"/></g><defs><linearGradient id="d" x1="8.588" x2="8.588" y1="4.68" y2="13.278" gradientUnits="userSpaceOnUse"><stop stop-color="#ff8000"/><stop offset="1" stop-color="red"/></linearGradient><clipPath id="a"><rect width="16" height="16" fill="#fff" rx="2"/></clipPath></defs></svg>