<svg xmlns="http://www.w3.org/2000/svg" width="38" height="10" fill="none" viewBox="0 0 38 10"><g clip-path="url(#a)"><mask id="j" width="37" height="9" x=".346" y=".704" fill="#000" maskUnits="userSpaceOnUse"><path fill="#fff" d="M.346.704h37v9h-37z"/><path d="m1.346 8 2.496-5.6h1.28L7.626 8h-1.36L4.218 3.056h.512L2.674 8zm1.248-1.2.344-.984h2.88l.352.984zm7.334 1.264q-.607 0-1.096-.272a2.1 2.1 0 0 1-.776-.776q-.28-.495-.28-1.168 0-.68.28-1.176.287-.496.776-.768.487-.272 1.096-.272.544 0 .952.24t.632.728.224 1.248q0 .752-.216 1.248a1.53 1.53 0 0 1-.624.728q-.4.24-.968.24m.216-1.024q.304 0 .552-.144t.392-.408q.152-.272.152-.64 0-.375-.152-.64a1.03 1.03 0 0 0-.392-.408 1.1 1.1 0 0 0-.552-.144q-.312 0-.56.144a1.1 1.1 0 0 0-.4.408 1.3 1.3 0 0 0-.144.64q0 .368.144.64.152.264.4.408t.56.144m1.128.96v-.88l.024-1.28-.08-1.272V2.064h1.248V8zm4.195.064q-.607 0-1.096-.272a2.1 2.1 0 0 1-.776-.776q-.28-.495-.28-1.168 0-.68.28-1.176.287-.496.776-.768.487-.272 1.096-.272.544 0 .952.24t.632.728.224 1.248q0 .752-.216 1.248a1.53 1.53 0 0 1-.624.728q-.4.24-.968.24m.216-1.024q.305 0 .552-.144t.392-.408q.152-.272.152-.64 0-.375-.152-.64a1.03 1.03 0 0 0-.392-.408 1.1 1.1 0 0 0-.552-.144q-.312 0-.56.144a1.1 1.1 0 0 0-.4.408 1.3 1.3 0 0 0-.144.64q0 .368.144.64.152.264.4.408t.56.144m1.128.96v-.88l.024-1.28-.08-1.272V2.064h1.248V8zm2.347 0V3.696h1.248V8zm.624-4.904a.8.8 0 0 1-.56-.2.65.65 0 0 1-.216-.496q0-.296.216-.496.215-.2.56-.2t.56.192a.6.6 0 0 1 .216.48.7.7 0 0 1-.216.52q-.208.2-.56.2m3.542 4.968q-.76 0-1.184-.384-.424-.392-.424-1.16V2.744h1.248v3.76q0 .272.144.424a.53.53 0 0 0 .392.144.8.8 0 0 0 .504-.16l.336.88q-.192.136-.464.208-.264.064-.552.064m-2.272-3.312v-.96h2.984v.96zM25.04 8V3.696h1.249V8zm.625-4.904a.8.8 0 0 1-.56-.2.65.65 0 0 1-.216-.496q0-.296.216-.496.215-.2.56-.2t.56.192a.6.6 0 0 1 .216.48.7.7 0 0 1-.216.52q-.209.2-.56.2M28.615 8l-1.808-4.304h1.288L29.6 7.4h-.64l1.56-3.704h1.2L29.903 8zm5.632.064q-.735 0-1.296-.288a2.14 2.14 0 0 1-.856-.784 2.17 2.17 0 0 1-.304-1.144q0-.648.296-1.144.304-.504.824-.784a2.4 2.4 0 0 1 1.176-.288q.632 0 1.136.272.512.264.808.768.296.495.296 1.192 0 .072-.008.168l-.016.168h-3.496v-.728h2.84l-.48.216q0-.336-.136-.584a.97.97 0 0 0-.376-.384 1.07 1.07 0 0 0-.56-.144 1.1 1.1 0 0 0-.568.144.95.95 0 0 0-.376.392q-.136.248-.136.592v.192q0 .353.152.624.16.264.44.408.288.135.672.136.345 0 .6-.104.264-.104.48-.312l.664.72a2 2 0 0 1-.744.52 2.8 2.8 0 0 1-1.032.176"/></mask><path fill="url(#b)" d="m1.346 8 2.496-5.6h1.28L7.626 8h-1.36L4.218 3.056h.512L2.674 8zm1.248-1.2.344-.984h2.88l.352.984z"/><path fill="url(#c)" d="M9.928 8.064q-.607 0-1.096-.272a2.1 2.1 0 0 1-.776-.776q-.28-.495-.28-1.168 0-.68.28-1.176.287-.496.776-.768.487-.272 1.096-.272.544 0 .952.24t.632.728.224 1.248q0 .752-.216 1.248a1.53 1.53 0 0 1-.624.728q-.4.24-.968.24m.216-1.024q.304 0 .552-.144t.392-.408q.152-.272.152-.64 0-.375-.152-.64a1.03 1.03 0 0 0-.392-.408 1.1 1.1 0 0 0-.552-.144q-.312 0-.56.144a1.1 1.1 0 0 0-.4.408 1.3 1.3 0 0 0-.144.64q0 .368.144.64.152.264.4.408t.56.144m1.128.96v-.88l.024-1.28-.08-1.272V2.064h1.248V8z"/><path fill="url(#d)" d="M15.467 8.064q-.607 0-1.096-.272a2.1 2.1 0 0 1-.776-.776q-.28-.495-.28-1.168 0-.68.28-1.176.287-.496.776-.768.487-.272 1.096-.272.544 0 .952.24t.632.728.224 1.248q0 .752-.216 1.248a1.53 1.53 0 0 1-.624.728q-.4.24-.968.24m.216-1.024q.305 0 .552-.144t.392-.408q.152-.272.152-.64 0-.375-.152-.64a1.03 1.03 0 0 0-.392-.408 1.1 1.1 0 0 0-.552-.144q-.312 0-.56.144a1.1 1.1 0 0 0-.4.408 1.3 1.3 0 0 0-.144.64q0 .368.144.64.152.264.4.408t.56.144m1.128.96v-.88l.024-1.28-.08-1.272V2.064h1.248V8z"/><path fill="url(#e)" d="M19.158 8V3.696h1.248V8zm.624-4.904a.8.8 0 0 1-.56-.2.65.65 0 0 1-.216-.496q0-.296.216-.496.215-.2.56-.2t.56.192a.6.6 0 0 1 .216.48.7.7 0 0 1-.216.52q-.208.2-.56.2"/><path fill="url(#f)" d="M23.324 8.064q-.76 0-1.184-.384-.424-.392-.424-1.16V2.744h1.248v3.76q0 .272.144.424a.53.53 0 0 0 .392.144.8.8 0 0 0 .504-.16l.336.88q-.192.136-.464.208-.264.064-.552.064m-2.272-3.312v-.96h2.984v.96z"/><path fill="url(#g)" d="M25.04 8V3.696h1.249V8zm.625-4.904a.8.8 0 0 1-.56-.2.65.65 0 0 1-.216-.496q0-.296.216-.496.215-.2.56-.2t.56.192a.6.6 0 0 1 .216.48.7.7 0 0 1-.216.52q-.209.2-.56.2"/><path fill="url(#h)" d="m28.615 8-1.808-4.304h1.288L29.6 7.4h-.64l1.56-3.704h1.2L29.903 8z"/><path fill="url(#i)" d="M34.247 8.064q-.735 0-1.296-.288a2.14 2.14 0 0 1-.856-.784 2.17 2.17 0 0 1-.304-1.144q0-.648.296-1.144.304-.504.824-.784a2.4 2.4 0 0 1 1.176-.288q.632 0 1.136.272.512.264.808.768.296.495.296 1.192 0 .072-.008.168l-.016.168h-3.496v-.728h2.84l-.48.216q0-.336-.136-.584a.97.97 0 0 0-.376-.384 1.07 1.07 0 0 0-.56-.144 1.1 1.1 0 0 0-.568.144.95.95 0 0 0-.376.392q-.136.248-.136.592v.192q0 .353.152.624.16.264.44.408.288.135.672.136.345 0 .6-.104.264-.104.48-.312l.664.72a2 2 0 0 1-.744.52 2.8 2.8 0 0 1-1.032.176"/><path stroke="#000" stroke-linejoin="round" stroke-width="2" d="m1.346 8 2.496-5.6h1.28L7.626 8h-1.36L4.218 3.056h.512L2.674 8zm1.248-1.2.344-.984h2.88l.352.984z" mask="url(#j)"/><path stroke="#000" stroke-linejoin="round" stroke-width="2" d="M9.928 8.064q-.607 0-1.096-.272a2.1 2.1 0 0 1-.776-.776q-.28-.495-.28-1.168 0-.68.28-1.176.287-.496.776-.768.487-.272 1.096-.272.544 0 .952.24t.632.728.224 1.248q0 .752-.216 1.248a1.53 1.53 0 0 1-.624.728q-.4.24-.968.24Zm.216-1.024q.304 0 .552-.144t.392-.408q.152-.272.152-.64 0-.375-.152-.64a1.03 1.03 0 0 0-.392-.408 1.1 1.1 0 0 0-.552-.144q-.312 0-.56.144a1.1 1.1 0 0 0-.4.408 1.3 1.3 0 0 0-.144.64q0 .368.144.64.152.264.4.408t.56.144Zm1.128.96v-.88l.024-1.28-.08-1.272V2.064h1.248V8z" mask="url(#j)"/><path stroke="#000" stroke-linejoin="round" stroke-width="2" d="M15.467 8.064q-.607 0-1.096-.272a2.1 2.1 0 0 1-.776-.776q-.28-.495-.28-1.168 0-.68.28-1.176.287-.496.776-.768.487-.272 1.096-.272.544 0 .952.24t.632.728.224 1.248q0 .752-.216 1.248a1.53 1.53 0 0 1-.624.728q-.4.24-.968.24Zm.216-1.024q.305 0 .552-.144t.392-.408q.152-.272.152-.64 0-.375-.152-.64a1.03 1.03 0 0 0-.392-.408 1.1 1.1 0 0 0-.552-.144q-.312 0-.56.144a1.1 1.1 0 0 0-.4.408 1.3 1.3 0 0 0-.144.64q0 .368.144.64.152.264.4.408t.56.144Zm1.128.96v-.88l.024-1.28-.08-1.272V2.064h1.248V8z" mask="url(#j)"/><path stroke="#000" stroke-linejoin="round" stroke-width="2" d="M19.158 8V3.696h1.248V8zm.624-4.904a.8.8 0 0 1-.56-.2.65.65 0 0 1-.216-.496q0-.296.216-.496.215-.2.56-.2t.56.192a.6.6 0 0 1 .216.48.7.7 0 0 1-.216.52q-.208.2-.56.2Z" mask="url(#j)"/><path stroke="#000" stroke-linejoin="round" stroke-width="2" d="M23.324 8.064q-.76 0-1.184-.384-.424-.392-.424-1.16V2.744h1.248v3.76q0 .272.144.424a.53.53 0 0 0 .392.144.8.8 0 0 0 .504-.16l.336.88q-.192.136-.464.208-.264.064-.552.064Zm-2.272-3.312v-.96h2.984v.96z" mask="url(#j)"/><path stroke="#000" stroke-linejoin="round" stroke-width="2" d="M25.04 8V3.696h1.249V8zm.625-4.904a.8.8 0 0 1-.56-.2.65.65 0 0 1-.216-.496q0-.296.216-.496.215-.2.56-.2t.56.192a.6.6 0 0 1 .216.48.7.7 0 0 1-.216.52q-.209.2-.56.2Z" mask="url(#j)"/><path stroke="#000" stroke-linejoin="round" stroke-width="2" d="m28.615 8-1.808-4.304h1.288L29.6 7.4h-.64l1.56-3.704h1.2L29.903 8z" mask="url(#j)"/><path stroke="#000" stroke-linejoin="round" stroke-width="2" d="M34.247 8.064q-.735 0-1.296-.288a2.14 2.14 0 0 1-.856-.784 2.17 2.17 0 0 1-.304-1.144q0-.648.296-1.144.304-.504.824-.784a2.4 2.4 0 0 1 1.176-.288q.632 0 1.136.272.512.264.808.768.296.495.296 1.192 0 .072-.008.168l-.016.168h-3.496v-.728h2.84l-.48.216q0-.336-.136-.584a.97.97 0 0 0-.376-.384 1.07 1.07 0 0 0-.56-.144 1.1 1.1 0 0 0-.568.144.95.95 0 0 0-.376.392q-.136.248-.136.592v.192q0 .353.152.624.16.264.44.408.288.135.672.136.345 0 .6-.104.264-.104.48-.312l.664.72a2 2 0 0 1-.744.52 2.8 2.8 0 0 1-1.032.176Z" mask="url(#j)"/></g><defs><linearGradient id="b" x1="19" x2="19" y1="2" y2="8" gradientUnits="userSpaceOnUse"><stop stop-color="#ff8000"/><stop offset="1" stop-color="red"/></linearGradient><linearGradient id="c" x1="19" x2="19" y1="2" y2="8" gradientUnits="userSpaceOnUse"><stop stop-color="#ff8000"/><stop offset="1" stop-color="red"/></linearGradient><linearGradient id="d" x1="19" x2="19" y1="2" y2="8" gradientUnits="userSpaceOnUse"><stop stop-color="#ff8000"/><stop offset="1" stop-color="red"/></linearGradient><linearGradient id="e" x1="19" x2="19" y1="2" y2="8" gradientUnits="userSpaceOnUse"><stop stop-color="#ff8000"/><stop offset="1" stop-color="red"/></linearGradient><linearGradient id="f" x1="19" x2="19" y1="2" y2="8" gradientUnits="userSpaceOnUse"><stop stop-color="#ff8000"/><stop offset="1" stop-color="red"/></linearGradient><linearGradient id="g" x1="19" x2="19" y1="2" y2="8" gradientUnits="userSpaceOnUse"><stop stop-color="#ff8000"/><stop offset="1" stop-color="red"/></linearGradient><linearGradient id="h" x1="19" x2="19" y1="2" y2="8" gradientUnits="userSpaceOnUse"><stop stop-color="#ff8000"/><stop offset="1" stop-color="red"/></linearGradient><linearGradient id="i" x1="19" x2="19" y1="2" y2="8" gradientUnits="userSpaceOnUse"><stop stop-color="#ff8000"/><stop offset="1" stop-color="red"/></linearGradient><clipPath id="a"><path fill="#fff" d="M0 0h38v10H0z"/></clipPath></defs></svg>