<svg xmlns="http://www.w3.org/2000/svg" width="16" height="16" fill="none" viewBox="0 0 16 16"><g clip-path="url(#a)"><rect width="16" height="16" fill="#cbeeff" rx="8"/><path fill="#fff" fill-opacity=".25" fill-rule="evenodd" d="M16 16.25H0v-.5h16zm0-2H0v-.5h16zm0-2H0v-.5h16zm0-2H0v-.5h16zm0-2H0v-.5h16zm0-2H0v-.5h16zm0-2H0v-.5h16zm0-2H0v-.5h16zm0-2H0v-.5h16z" clip-rule="evenodd"/><path fill="#fff" stroke="#000" stroke-linecap="round" stroke-linejoin="round" d="M2.719 9.625a2.437 2.437 0 0 0 2.437 2.438h6.094a2.031 2.031 0 0 0 .722-3.931 1.625 1.625 0 0 0-2.036-2.085A2.844 2.844 0 0 0 4.393 7.31a2.44 2.44 0 0 0-1.674 2.316"/></g><defs><clipPath id="a"><rect width="16" height="16" fill="#fff" rx="8"/></clipPath></defs></svg>