<svg xmlns="http://www.w3.org/2000/svg" width="16" height="16" fill="none" viewBox="0 0 16 16"><path fill="#fff" d="M0 0h16v16H0z"/><path fill="url(#a)" d="M0 0h16v16H0z"/><g clip-path="url(#b)"><path stroke="#fff" stroke-linecap="round" stroke-linejoin="round" d="m9.25 8-3.905 3.905a.883.883 0 1 1-1.25-1.25L8 6.75m2.5 2.5 1.667-1.667m-.209.209-.797-.798a.83.83 0 0 1-.244-.589v-.143a.83.83 0 0 0-.245-.59l-.69-.69a2.5 2.5 0 0 0-1.767-.732H6.75l.518.518A2.5 2.5 0 0 1 8 6.535v.632L8.833 8h.489c.22 0 .433.088.589.244l.797.798"/></g><defs><linearGradient id="a" x1="8" x2="8" y1="0" y2="16" gradientUnits="userSpaceOnUse"><stop stop-color="#5757c2"/><stop offset="1" stop-color="#a175cd"/></linearGradient><clipPath id="b"><path fill="#fff" d="M3 3h10v10H3z"/></clipPath></defs></svg>