<svg xmlns="http://www.w3.org/2000/svg" width="16" height="16" fill="none" viewBox="0 0 16 16"><g clip-path="url(#a)"><path fill="#dccbff" d="M0 0h16v16H0z"/><path fill="#6cf" d="m-.097 3.983 5.114.92-.921 5.114-5.114-.92z"/><path fill="#8066ff" d="M10.959 2.175 16.923.693l1.483 5.963L12.44 8.14z"/><path fill="#b366ff" d="m11.827 10.179 4.178.724-.723 4.174-4.178-.724z"/><rect width="7.125" height="3.125" x="4.806" y="2.277" fill="url(#b)" stroke="#000" stroke-width="1.125" rx=".813" transform="rotate(3.725 4.806 2.277)"/><mask id="d" width="5.639" height="10.304" x="5.05" y="4.903" fill="#000" maskUnits="userSpaceOnUse"><path fill="#fff" d="M5.05 4.903h5.639v10.304H5.05z"/><path d="m7.696 5.033.998.065-.487 7.485a.5.5 0 0 1-.998-.065z"/></mask><path fill="url(#c)" d="m7.696 5.033.998.065-.487 7.485a.5.5 0 0 1-.998-.065z"/><path fill="#000" d="m7.696 5.033.998.065zm1.633 7.623a1.625 1.625 0 1 1-3.243-.212l2.161-.485-.998-.065zM7.602 14.17a1.625 1.625 0 0 1-1.516-1.727l.487-7.484 2.12.138-.486 7.485a.5.5 0 0 1-.532.466zm2.214-9-.487 7.485a1.625 1.625 0 0 1-1.727 1.515l.073-1.122a.5.5 0 0 1-.466-.532l.454-6.985.033-.499z" mask="url(#d)"/></g><defs><linearGradient id="b" x1="8.331" x2="8.331" y1="2.875" y2="4.875" gradientUnits="userSpaceOnUse"><stop stop-color="#ccc"/><stop offset="1" stop-color="#9a9a9a"/></linearGradient><linearGradient id="c" x1="8.195" x2="7.675" y1="5.066" y2="13.049" gradientUnits="userSpaceOnUse"><stop stop-color="#d98026"/><stop offset="1" stop-color="#ad661f"/></linearGradient><clipPath id="a"><rect width="16" height="16" fill="#fff" rx="2"/></clipPath></defs></svg>