<svg xmlns="http://www.w3.org/2000/svg" width="14" height="14" fill="none" viewBox="0 0 14 14"><rect width="7.125" height="3.125" x="3.725" y="1.402" fill="url(#a)" stroke="#000" stroke-width="1.125" rx=".813" transform="rotate(3.725 3.725 1.402)"/><mask id="c" width="5.639" height="10.304" x="3.969" y="4.028" fill="#000" maskUnits="userSpaceOnUse"><path fill="#fff" d="M3.969 4.028h5.639v10.304H3.969z"/><path d="m6.615 4.158.998.065-.488 7.485a.5.5 0 0 1-.998-.065z"/></mask><path fill="url(#b)" d="m6.615 4.158.998.065-.488 7.485a.5.5 0 0 1-.998-.065z"/><path fill="#000" d="m6.615 4.158.998.065zm1.638 7.623a1.625 1.625 0 0 1-1.727 1.516h-.01A1.625 1.625 0 0 1 5 11.568l2.166-.485-.998-.065zm-1.737 1.515A1.625 1.625 0 0 1 5 11.57l.487-7.484 2.126.138-.488 7.485a.5.5 0 0 1-.53.466zm2.224-9-.487 7.485a1.625 1.625 0 0 1-1.727 1.516l.068-1.123a.5.5 0 0 1-.467-.532l.455-6.985.033-.499z" mask="url(#c)"/><defs><linearGradient id="a" x1="7.25" x2="7.25" y1="2" y2="4" gradientUnits="userSpaceOnUse"><stop stop-color="#ccc"/><stop offset="1" stop-color="#9a9a9a"/></linearGradient><linearGradient id="b" x1="7.114" x2="6.594" y1="4.191" y2="12.174" gradientUnits="userSpaceOnUse"><stop stop-color="#d98026"/><stop offset="1" stop-color="#ad661f"/></linearGradient></defs></svg>