<svg xmlns="http://www.w3.org/2000/svg" width="39" height="16" fill="none" viewBox="0 0 39 16"><g clip-path="url(#a)"><mask id="h" width="38" height="8" x=".812" y="7.4" fill="#000" maskUnits="userSpaceOnUse"><path fill="#fff" d="M.812 7.4h38v8h-38z"/><path d="M5.652 8.4h1.296V14H5.652zM3.108 14H1.812V8.4h1.296zm2.64-2.296H3.012v-1.096h2.736zM10.825 14v-.84l-.08-.184v-1.504q0-.4-.248-.624-.24-.225-.744-.224-.344 0-.68.112-.327.104-.56.288l-.448-.872q.353-.248.848-.384.497-.136 1.008-.136.985 0 1.528.464.544.465.544 1.448V14zm-1.312.064a2 2 0 0 1-.864-.168 1.34 1.34 0 0 1-.552-.472 1.2 1.2 0 0 1-.192-.664q0-.384.184-.672.192-.288.6-.448.408-.168 1.064-.168h1.144v.728H9.89q-.44 0-.608.144a.46.46 0 0 0-.16.36q0 .24.184.384.192.136.52.136.312 0 .56-.144a.87.87 0 0 0 .36-.44l.192.576q-.136.416-.496.632t-.928.216m9.121-4.432q.511 0 .904.208.399.2.624.624.231.416.232 1.072V14h-1.248v-2.272q0-.52-.216-.768t-.608-.248a.94.94 0 0 0-.488.128.8.8 0 0 0-.336.368q-.12.248-.12.632V14H16.13v-2.272q0-.52-.216-.768-.209-.248-.6-.248a.94.94 0 0 0-.488.128.8.8 0 0 0-.336.368q-.12.248-.12.632V14h-1.248V9.696h1.192v1.176l-.224-.344q.225-.44.632-.664.416-.232.944-.232.592 0 1.032.304.447.295.592.912l-.44-.12a1.73 1.73 0 0 1 .688-.8q.48-.296 1.096-.296m8.392 0q.51 0 .904.208.399.2.624.624.232.416.232 1.072V14h-1.248v-2.272q0-.52-.216-.768-.217-.248-.608-.248a.94.94 0 0 0-.488.128.8.8 0 0 0-.336.368q-.12.248-.12.632V14h-1.248v-2.272q0-.52-.216-.768-.21-.248-.6-.248a.94.94 0 0 0-.488.128.8.8 0 0 0-.337.368q-.12.248-.12.632V14h-1.247V9.696h1.192v1.176l-.224-.344q.224-.44.631-.664.417-.232.945-.232.591 0 1.032.304.447.295.591.912l-.44-.12a1.73 1.73 0 0 1 .689-.8q.48-.296 1.096-.296m5.045 4.432q-.735 0-1.296-.288a2.14 2.14 0 0 1-.856-.784 2.17 2.17 0 0 1-.304-1.144q0-.648.296-1.144.305-.504.824-.784a2.4 2.4 0 0 1 1.176-.288q.632 0 1.136.272.513.264.808.768.297.495.296 1.192 0 .072-.008.168l-.016.168h-3.496v-.728h2.84l-.48.216q0-.336-.136-.584a.97.97 0 0 0-.376-.384 1.07 1.07 0 0 0-.56-.144 1.1 1.1 0 0 0-.568.144.95.95 0 0 0-.376.392q-.136.248-.136.592v.192q0 .352.152.624.16.264.44.408.288.136.672.136.345 0 .6-.104.264-.104.48-.312l.664.72a2 2 0 0 1-.744.52 2.8 2.8 0 0 1-1.032.176M34.982 14V9.696h1.192v1.216l-.168-.352q.193-.456.616-.688.425-.24 1.032-.24v1.152a2 2 0 0 0-.144-.008 1 1 0 0 0-.136-.008q-.511 0-.832.296-.312.288-.312.904V14z"/></mask><path fill="url(#b)" d="M5.652 8.4h1.296V14H5.652zM3.108 14H1.812V8.4h1.296zm2.64-2.296H3.012v-1.096h2.736z"/><path fill="url(#c)" d="M10.825 14v-.84l-.08-.184v-1.504q0-.4-.248-.624-.24-.225-.744-.224-.344 0-.68.112-.327.104-.56.288l-.448-.872q.353-.248.848-.384.497-.136 1.008-.136.985 0 1.528.464.544.465.544 1.448V14zm-1.312.064a2 2 0 0 1-.864-.168 1.34 1.34 0 0 1-.552-.472 1.2 1.2 0 0 1-.192-.664q0-.384.184-.672.192-.288.6-.448.408-.168 1.064-.168h1.144v.728H9.89q-.44 0-.608.144a.46.46 0 0 0-.16.36q0 .24.184.384.192.136.52.136.312 0 .56-.144a.87.87 0 0 0 .36-.44l.192.576q-.136.416-.496.632t-.928.216"/><path fill="url(#d)" d="M18.635 9.632q.511 0 .904.208.399.2.624.624.231.416.232 1.072V14h-1.248v-2.272q0-.52-.216-.768t-.608-.248a.94.94 0 0 0-.488.128.8.8 0 0 0-.336.368q-.12.248-.12.632V14H16.13v-2.272q0-.52-.216-.768-.209-.248-.6-.248a.94.94 0 0 0-.488.128.8.8 0 0 0-.336.368q-.12.248-.12.632V14h-1.248V9.696h1.192v1.176l-.224-.344q.225-.44.632-.664.416-.232.944-.232.592 0 1.032.304.447.295.592.912l-.44-.12a1.73 1.73 0 0 1 .688-.8q.48-.296 1.096-.296"/><path fill="url(#e)" d="M27.026 9.632q.51 0 .904.208.399.2.624.624.232.416.232 1.072V14h-1.248v-2.272q0-.52-.216-.768-.217-.248-.608-.248a.94.94 0 0 0-.488.128.8.8 0 0 0-.336.368q-.12.248-.12.632V14h-1.248v-2.272q0-.52-.216-.768-.21-.248-.6-.248a.94.94 0 0 0-.488.128.8.8 0 0 0-.337.368q-.12.248-.12.632V14h-1.247V9.696h1.192v1.176l-.224-.344q.224-.44.631-.664.417-.232.945-.232.591 0 1.032.304.447.295.591.912l-.44-.12a1.73 1.73 0 0 1 .689-.8q.48-.296 1.096-.296"/><path fill="url(#f)" d="M32.071 14.064q-.735 0-1.296-.288a2.14 2.14 0 0 1-.856-.784 2.17 2.17 0 0 1-.304-1.144q0-.648.296-1.144.305-.504.824-.784a2.4 2.4 0 0 1 1.176-.288q.632 0 1.136.272.513.264.808.768.297.495.296 1.192 0 .072-.008.168l-.016.168h-3.496v-.728h2.84l-.48.216q0-.336-.136-.584a.97.97 0 0 0-.376-.384 1.07 1.07 0 0 0-.56-.144 1.1 1.1 0 0 0-.568.144.95.95 0 0 0-.376.392q-.136.248-.136.592v.192q0 .352.152.624.16.264.44.408.288.136.672.136.345 0 .6-.104.264-.104.48-.312l.664.72a2 2 0 0 1-.744.52 2.8 2.8 0 0 1-1.032.176"/><path fill="url(#g)" d="M34.982 14V9.696h1.192v1.216l-.168-.352q.193-.456.616-.688.425-.24 1.032-.24v1.152a2 2 0 0 0-.144-.008 1 1 0 0 0-.136-.008q-.511 0-.832.296-.312.288-.312.904V14z"/><path stroke="#000" stroke-linejoin="round" stroke-width="2" d="M5.652 8.4h1.296V14H5.652zM3.108 14H1.812V8.4h1.296zm2.64-2.296H3.012v-1.096h2.736z" mask="url(#h)"/><path stroke="#000" stroke-linejoin="round" stroke-width="2" d="M10.825 14v-.84l-.08-.184v-1.504q0-.4-.248-.624-.24-.225-.744-.224-.344 0-.68.112-.327.104-.56.288l-.448-.872q.353-.248.848-.384.497-.136 1.008-.136.985 0 1.528.464.544.465.544 1.448V14zm-1.312.064a2 2 0 0 1-.864-.168 1.34 1.34 0 0 1-.552-.472 1.2 1.2 0 0 1-.192-.664q0-.384.184-.672.192-.288.6-.448.408-.168 1.064-.168h1.144v.728H9.89q-.44 0-.608.144a.46.46 0 0 0-.16.36q0 .24.184.384.192.136.52.136.312 0 .56-.144a.87.87 0 0 0 .36-.44l.192.576q-.136.416-.496.632t-.928.216Z" mask="url(#h)"/><path stroke="#000" stroke-linejoin="round" stroke-width="2" d="M18.635 9.632q.511 0 .904.208.399.2.624.624.231.416.232 1.072V14h-1.248v-2.272q0-.52-.216-.768t-.608-.248a.94.94 0 0 0-.488.128.8.8 0 0 0-.336.368q-.12.248-.12.632V14H16.13v-2.272q0-.52-.216-.768-.209-.248-.6-.248a.94.94 0 0 0-.488.128.8.8 0 0 0-.336.368q-.12.248-.12.632V14h-1.248V9.696h1.192v1.176l-.224-.344q.225-.44.632-.664.416-.232.944-.232.592 0 1.032.304.447.295.592.912l-.44-.12a1.73 1.73 0 0 1 .688-.8q.48-.296 1.096-.296Z" mask="url(#h)"/><path stroke="#000" stroke-linejoin="round" stroke-width="2" d="M27.026 9.632q.51 0 .904.208.399.2.624.624.232.416.232 1.072V14h-1.248v-2.272q0-.52-.216-.768-.217-.248-.608-.248a.94.94 0 0 0-.488.128.8.8 0 0 0-.336.368q-.12.248-.12.632V14h-1.248v-2.272q0-.52-.216-.768-.21-.248-.6-.248a.94.94 0 0 0-.488.128.8.8 0 0 0-.337.368q-.12.248-.12.632V14h-1.247V9.696h1.192v1.176l-.224-.344q.224-.44.631-.664.417-.232.945-.232.591 0 1.032.304.447.295.591.912l-.44-.12a1.73 1.73 0 0 1 .689-.8q.48-.296 1.096-.296Z" mask="url(#h)"/><path stroke="#000" stroke-linejoin="round" stroke-width="2" d="M32.071 14.064q-.735 0-1.296-.288a2.14 2.14 0 0 1-.856-.784 2.17 2.17 0 0 1-.304-1.144q0-.648.296-1.144.305-.504.824-.784a2.4 2.4 0 0 1 1.176-.288q.632 0 1.136.272.513.264.808.768.297.495.296 1.192 0 .072-.008.168l-.016.168h-3.496v-.728h2.84l-.48.216q0-.336-.136-.584a.97.97 0 0 0-.376-.384 1.07 1.07 0 0 0-.56-.144 1.1 1.1 0 0 0-.568.144.95.95 0 0 0-.376.392q-.136.248-.136.592v.192q0 .352.152.624.16.264.44.408.288.136.672.136.345 0 .6-.104.264-.104.48-.312l.664.72a2 2 0 0 1-.744.52 2.8 2.8 0 0 1-1.032.176Z" mask="url(#h)"/><path stroke="#000" stroke-linejoin="round" stroke-width="2" d="M34.982 14V9.696h1.192v1.216l-.168-.352q.193-.456.616-.688.425-.24 1.032-.24v1.152a2 2 0 0 0-.144-.008 1 1 0 0 0-.136-.008q-.511 0-.832.296-.312.288-.312.904V14z" mask="url(#h)"/><rect width="7.125" height="3.125" x="25.562" y="8.115" fill="url(#i)" stroke="#000" stroke-width="1.125" rx=".813" transform="rotate(-75.884 25.562 8.115)"/><mask id="k" width="10.918" height="7.288" x="28.306" y="2.861" fill="#000" maskUnits="userSpaceOnUse"><path fill="#fff" d="M28.306 2.861h10.918v7.288H28.306z"/><path d="m28.794 5.77.244-.97 7.273 1.83a.5.5 0 0 1-.244.97z"/></mask><path fill="url(#j)" d="m28.794 5.77.244-.97 7.273 1.83a.5.5 0 0 1-.244.97z"/><path fill="#000" d="m28.794 5.77.244-.97zm7.792-.232a1.625 1.625 0 1 1-.793 3.152l-.088-2.213-.244.97zm1.18 1.972a1.625 1.625 0 0 1-1.973 1.18l-7.274-1.829.519-2.06 7.273 1.828a.5.5 0 0 1 .363.607zm-8.454-3.8 7.274 1.828a1.625 1.625 0 0 1 1.18 1.972l-1.092-.274a.5.5 0 0 1-.607.363L29.28 5.892l-.485-.122z" mask="url(#k)"/></g><defs><linearGradient id="b" x1="19.5" x2="19.5" y1="6" y2="16" gradientUnits="userSpaceOnUse"><stop stop-color="#05f"/><stop offset="1" stop-color="#00d5ff"/></linearGradient><linearGradient id="c" x1="19.5" x2="19.5" y1="6" y2="16" gradientUnits="userSpaceOnUse"><stop stop-color="#05f"/><stop offset="1" stop-color="#00d5ff"/></linearGradient><linearGradient id="d" x1="19.5" x2="19.5" y1="6" y2="16" gradientUnits="userSpaceOnUse"><stop stop-color="#05f"/><stop offset="1" stop-color="#00d5ff"/></linearGradient><linearGradient id="e" x1="19.5" x2="19.5" y1="6" y2="16" gradientUnits="userSpaceOnUse"><stop stop-color="#05f"/><stop offset="1" stop-color="#00d5ff"/></linearGradient><linearGradient id="f" x1="19.5" x2="19.5" y1="6" y2="16" gradientUnits="userSpaceOnUse"><stop stop-color="#05f"/><stop offset="1" stop-color="#00d5ff"/></linearGradient><linearGradient id="g" x1="19.5" x2="19.5" y1="6" y2="16" gradientUnits="userSpaceOnUse"><stop stop-color="#05f"/><stop offset="1" stop-color="#00d5ff"/></linearGradient><linearGradient id="i" x1="29.244" x2="29.244" y1="7.707" y2="9.707" gradientUnits="userSpaceOnUse"><stop stop-color="#ccc"/><stop offset="1" stop-color="#9a9a9a"/></linearGradient><linearGradient id="j" x1="28.916" x2="36.674" y1="5.285" y2="7.236" gradientUnits="userSpaceOnUse"><stop stop-color="#d98026"/><stop offset="1" stop-color="#ad661f"/></linearGradient><clipPath id="a"><path fill="#fff" d="M0 0h39v16H0z"/></clipPath></defs></svg>