<svg xmlns="http://www.w3.org/2000/svg" width="60" height="30" fill="none" viewBox="0 0 60 30"><g clip-path="url(#a)"><path fill="#fce" d="M0 0h60v30H0z"/><path fill="#ffb366" d="m43.453.678 1.366 5.211 4.846 2.356-5.212 1.366-2.355 4.846-1.367-5.212-4.845-2.355 5.212-1.367z"/><path fill="#ff8066" d="m39.742 17.51 2.23 4.153 4.605 1.01-4.154 2.231-1.01 4.605-2.23-4.154-4.605-1.01 4.153-2.23z"/><path fill="#f6c" fill-opacity=".92" d="m14.678 6.974 1.682 3.674 3.885 1.114-3.674 1.683-1.114 3.884-1.683-3.673-3.884-1.114 3.674-1.683z"/></g><defs><clipPath id="a"><path fill="#fff" d="M0 0h60v30H0z"/></clipPath></defs></svg>