<svg xmlns="http://www.w3.org/2000/svg" width="60" height="30" fill="none" viewBox="0 0 60 30"><g clip-path="url(#a)"><path fill="#fce" d="M0 0h60v30H0z"/><path fill="#ffb366" d="m43.453.678 1.366 5.211 4.846 2.356-5.212 1.366-2.355 4.846-1.367-5.212-4.845-2.355 5.212-1.367z"/><path fill="#ff8066" d="m39.742 17.51 2.23 4.153 4.605 1.01-4.154 2.231-1.01 4.605-2.23-4.154-4.605-1.01 4.153-2.23z"/><path fill="#f6c" fill-opacity=".92" d="m14.678 6.974 1.682 3.674 3.885 1.114-3.674 1.683-1.114 3.884-1.683-3.673-3.884-1.114 3.674-1.683z"/><path fill="#000" d="M23.079 15.868a.5.5 0 0 0 .745.666l-.372-.333zm2.372-1.904-.373-.333-2 2.237.374.333.372.333 2-2.236z"/><path stroke="#000" d="M35.335 13.41c.031.565 2.197 1.293 4.196-.944 1.666-1.863 3.943.842 2.729 4.45-1.15 3.418-3.824 1.278-5.57 1.73"/><path fill="url(#b)" stroke="#000" stroke-width="1.13" d="M28.507 7.446a.78.78 0 0 1 .535-.262h.099l.134.015c.35.048.947.212 1.55.752.583.52.817 1.074.91 1.42l3.285 1.728c.254.133.42.39.435.675l.065 1.168a.82.82 0 0 1-.205.589l-.431.482a.833.833 0 0 1-1.12.105c-.499-.374-1.37-.794-2.243-1.162-.714-.3-1.39-.548-1.784-.688l-1.393 1.558a.8.8 0 0 1-.15.132l-1.518 1.03a.816.816 0 0 1-1.002-.066l-1.2-1.072a.816.816 0 0 1-.178-.988l.855-1.624.052-.086a1 1 0 0 1 .062-.079z"/><path fill="url(#c)" stroke="#000" stroke-linejoin="round" d="M30.606 15.204c.324 0 .632.093.883.313l.001-.002.003.004.005.003-.001.001c.256.222.385.52.385.853 0 .338-.123.643-.37.88l-.019.016a.5.5 0 0 1 .237.424V22a.5.5 0 0 1-.5.5h-1.248a.5.5 0 0 1-.5-.5v-2.783a.5.5 0 0 1-.3.064 1 1 0 0 0-.093-.005l-.063-.004-.074-.004c-.238 0-.387.066-.492.163-.067.062-.151.202-.152.537V22a.5.5 0 0 1-.5.5h-1.247a.5.5 0 0 1-.5-.5v-1.897a3 3 0 0 1-.357.84l-.002.003a3.2 3.2 0 0 1-1.285 1.156l-.004.002c-.544.27-1.159.396-1.83.396h-2.544a.5.5 0 0 1-.5-.5v-5.6a.5.5 0 0 1 .5-.5h2.544c.672 0 1.286.13 1.83.404l.198.106c.45.26.817.608 1.091 1.044q.243.39.358.837v-.595a.5.5 0 0 1 .5-.5h1.192c.144 0 .273.061.364.158a2.7 2.7 0 0 1 1.116-.222c.166 0 .312.081.403.205a.5.5 0 0 1 .084-.065l-.012-.01a1.15 1.15 0 0 1-.377-.862c0-.335.13-.634.377-.863a1.3 1.3 0 0 1 .9-.333Zm3.03.36a.5.5 0 0 1 .5.5V22a.5.5 0 0 1-.5.5H32.39a.5.5 0 0 1-.5-.5v-5.936a.5.5 0 0 1 .5-.5zm2.407 0a.5.5 0 0 1 .5.5V22a.5.5 0 0 1-.5.5h-1.248a.5.5 0 0 1-.5-.5v-5.936a.5.5 0 0 1 .5-.5zm-14.208 4.872h.684c.312 0 .553-.058.74-.154.194-.101.335-.236.434-.41l.003-.007c.102-.172.163-.388.163-.665 0-.284-.06-.497-.16-.661l-.007-.01v-.002a1 1 0 0 0-.428-.4l-.011-.005c-.186-.099-.425-.158-.733-.158h-.685z"/></g><defs><linearGradient id="b" x1="25.784" x2="39.96" y1="13.591" y2="7.485" gradientUnits="userSpaceOnUse"><stop stop-color="#f50"/><stop offset=".225" stop-color="#ff00d6"/><stop offset=".479" stop-color="#666"/></linearGradient><linearGradient id="c" x1="28" x2="28" y1="16" y2="22" gradientUnits="userSpaceOnUse"><stop stop-color="#ff00d6"/><stop offset="1" stop-color="#f50"/></linearGradient><clipPath id="a"><path fill="#fff" d="M0 0h60v30H0z"/></clipPath></defs></svg>