<svg xmlns="http://www.w3.org/2000/svg" width="16" height="16" fill="none" viewBox="0 0 16 16"><g clip-path="url(#a)"><path fill="#fce" d="M0 0h16v16H0z"/><path fill="#ffb366" d="m14.23.792.79 3.01 2.8 1.362-3.011.79-1.361 2.8-.79-3.012-2.8-1.361 3.012-.79z"/><path fill="#ff8066" d="m13.242 10.517 1.289 2.4 2.66.584-2.4 1.289-.583 2.66-1.289-2.4-2.66-.584 2.4-1.288z"/><path fill="#f6c" fill-opacity=".92" d="m1.649 4.43.972 2.122 2.245.644-2.123.972-.643 2.245-.973-2.123-2.244-.643 2.122-.973z"/><path fill="#000" d="M2.889 2.514a.5.5 0 0 0-.375.928l.188-.464zm2.594 1.588.188-.464-2.782-1.124-.187.464-.188.464 2.782 1.123z"/><path stroke="#000" d="M9.351 13.214c-.52.221-1.468 1.275-1.4 2.131.06.743.827 2.491 3.423 3.54 2.596 1.05 2.927 3.879 3.601 5.77"/><path fill="url(#b)" stroke="#000" stroke-width="1.13" d="M12.651 4.77a.8.8 0 0 1 .429.416l.032.093.032.13c.073.346.12.963-.183 1.714-.292.725-.734 1.132-1.028 1.338l-.514 3.675a.82.82 0 0 1-.488.638l-1.076.456a.82.82 0 0 1-.624.006l-.6-.242a.833.833 0 0 1-.477-1.018c.182-.596.283-1.559.333-2.503.041-.774.045-1.494.044-1.912l-1.938-.783a.8.8 0 0 1-.175-.097l-1.484-1.08a.816.816 0 0 1-.276-.965l.602-1.492c.14-.347.5-.554.87-.502l1.817.254.098.02a1 1 0 0 1 .095.032z"/></g><defs><linearGradient id="b" x1="5.947" x2="16.492" y1="4.289" y2="15.56" gradientUnits="userSpaceOnUse"><stop stop-color="#f50"/><stop offset=".225" stop-color="#ff00d6"/><stop offset=".479" stop-color="#666"/></linearGradient><clipPath id="a"><rect width="16" height="16" fill="#fff" rx="2"/></clipPath></defs></svg>