<svg xmlns="http://www.w3.org/2000/svg" width="16" height="16" fill="none" viewBox="0 0 16 16"><path fill="#fff" d="M0 0h16v16H0z"/><path fill="url(#a)" d="M0 0h16v16H0z"/><g clip-path="url(#b)"><path stroke="#fff" stroke-linecap="round" stroke-linejoin="round" d="M4.25 10.5a.417.417 0 0 0-.417.417 1.25 1.25 0 0 0 1.25 1.25h2.084a.416.416 0 0 0 .416-.417v-.833a.417.417 0 0 0-.416-.417zm0 0 .833-3.333m3.334 0h-3.75a.833.833 0 0 1-.834-.834V4.667a.833.833 0 0 1 .834-.834h3.75a.417.417 0 0 1 .416.417v2.5a.417.417 0 0 1-.416.417m0 0-.338 1.35a.42.42 0 0 1-.404.316H6.333m2.5-4.166h1.25a.417.417 0 0 1 .417.416v.834a.417.417 0 0 1-.417.416h-1.25M10.5 5.5h1.667m-6.25 5 .833-3.333"/></g><defs><linearGradient id="a" x1="8" x2="8" y1="0" y2="16" gradientUnits="userSpaceOnUse"><stop stop-color="#c2579e"/><stop offset="1" stop-color="#cd7584"/></linearGradient><clipPath id="b"><path fill="#fff" d="M3 3h10v10H3z"/></clipPath></defs></svg>