<svg xmlns="http://www.w3.org/2000/svg" width="13" height="13" fill="none" viewBox="0 0 13 13"><path fill="#000" d="M.5 4a.5.5 0 0 0 0 1zm3 .5V4h-3v1h3z"/><path fill="url(#a)" stroke="#000" stroke-width="1.13" d="M10.397 2.435c.184 0 .393.065.552.224l.065.074.079.11c.197.292.472.847.472 1.657 0 .781-.256 1.325-.452 1.625l.9 3.6a.82.82 0 0 1-.213.775l-.827.826a.82.82 0 0 1-.577.24H9.75a.833.833 0 0 1-.824-.765c-.054-.621-.322-1.552-.63-2.447a35 35 0 0 0-.675-1.789h-2.09a.8.8 0 0 1-.198-.024l-1.78-.445a.816.816 0 0 1-.618-.791v-1.61c0-.374.255-.7.618-.79l1.78-.446.099-.018a1 1 0 0 1 .1-.006z"/><defs><linearGradient id="a" x1="4" x2="18" y1="4.5" y2="11" gradientUnits="userSpaceOnUse"><stop stop-color="#f50"/><stop offset=".225" stop-color="#ff00d6"/><stop offset=".479" stop-color="#666"/></linearGradient></defs></svg>