<svg xmlns="http://www.w3.org/2000/svg" width="26" height="18" fill="none" viewBox="0 0 26 18"><path fill="#000" d="M5.079 9.868a.5.5 0 0 0 .745.666l-.372-.333zM7.45 7.964l-.373-.333-2 2.237.374.333.372.333 2-2.236z"/><path stroke="#000" d="M17.335 7.41c.031.565 2.197 1.293 4.196-.943 1.666-1.864 3.943.84 2.729 4.45-1.15 3.417-3.824 1.277-5.57 1.729"/><path fill="url(#a)" stroke="#000" stroke-width="1.13" d="M10.507 1.446a.78.78 0 0 1 .536-.262h.098l.134.015c.35.048.947.212 1.55.752.583.52.817 1.074.91 1.42l3.285 1.728c.254.133.42.39.435.676l.065 1.167a.82.82 0 0 1-.205.589l-.431.482a.833.833 0 0 1-1.12.105c-.499-.374-1.37-.794-2.243-1.162-.714-.3-1.39-.548-1.784-.688l-1.393 1.558a.8.8 0 0 1-.15.132l-1.518 1.03a.816.816 0 0 1-1.002-.066l-1.2-1.072a.816.816 0 0 1-.178-.988l.855-1.625.052-.085a1 1 0 0 1 .061-.079z"/><path fill="url(#b)" stroke="#000" stroke-linejoin="round" d="M12.606 9.204c.324 0 .632.093.883.312h.001l.003.003.005.003-.001.001c.256.222.385.52.385.853 0 .338-.123.643-.37.88l-.019.016a.5.5 0 0 1 .237.424V16a.5.5 0 0 1-.5.5h-1.248a.5.5 0 0 1-.5-.5v-2.783a.5.5 0 0 1-.3.064 1 1 0 0 0-.093-.005l-.063-.004-.074-.004c-.238 0-.387.066-.492.163-.067.062-.151.202-.152.537V16a.5.5 0 0 1-.5.5H8.56a.5.5 0 0 1-.5-.5v-1.897a3 3 0 0 1-.356.84l-.002.003a3.2 3.2 0 0 1-1.285 1.156l-.004.002c-.544.27-1.159.396-1.83.396H2.039a.5.5 0 0 1-.5-.5v-5.6a.5.5 0 0 1 .5-.5h2.544c.672 0 1.286.13 1.83.404l.198.106c.45.26.817.608 1.091 1.044q.243.39.358.837v-.595a.5.5 0 0 1 .5-.5h1.192c.144 0 .273.061.364.158a2.7 2.7 0 0 1 1.116-.222c.166 0 .312.081.403.205a.5.5 0 0 1 .084-.065l-.012-.01a1.15 1.15 0 0 1-.377-.862c0-.335.13-.634.377-.863a1.3 1.3 0 0 1 .9-.333Zm3.03.36a.5.5 0 0 1 .5.5V16a.5.5 0 0 1-.5.5H14.39a.5.5 0 0 1-.5-.5v-5.936a.5.5 0 0 1 .5-.5zm2.407 0a.5.5 0 0 1 .5.5V16a.5.5 0 0 1-.5.5h-1.248a.5.5 0 0 1-.5-.5v-5.936a.5.5 0 0 1 .5-.5zM3.835 14.436h.684c.312 0 .553-.058.74-.154.194-.101.335-.236.434-.41l.003-.007c.102-.172.163-.388.163-.665 0-.284-.06-.497-.16-.661l-.007-.01v-.002a1 1 0 0 0-.428-.4l-.011-.005a1.55 1.55 0 0 0-.734-.158h-.684z"/><defs><linearGradient id="a" x1="7.784" x2="21.96" y1="7.592" y2="1.485" gradientUnits="userSpaceOnUse"><stop stop-color="#f50"/><stop offset=".225" stop-color="#ff00d6"/><stop offset=".479" stop-color="#666"/></linearGradient><linearGradient id="b" x1="10" x2="10" y1="10" y2="16" gradientUnits="userSpaceOnUse"><stop stop-color="#ff00d6"/><stop offset="1" stop-color="#f50"/></linearGradient></defs></svg>