<svg xmlns="http://www.w3.org/2000/svg" width="20" height="10" fill="none" viewBox="0 0 20 10"><path fill="url(#a)" stroke="#000" stroke-linejoin="round" d="M12.606 1.204c.324 0 .632.093.883.312h.001l.003.003.005.003-.001.001c.256.222.385.52.385.853 0 .338-.123.643-.37.88q-.009.009-.019.016a.5.5 0 0 1 .237.424V8a.5.5 0 0 1-.5.5h-1.248a.5.5 0 0 1-.5-.5V5.217a.5.5 0 0 1-.3.064 1 1 0 0 0-.093-.005l-.063-.004-.074-.004c-.238 0-.387.066-.492.163-.067.062-.151.202-.152.537V8a.5.5 0 0 1-.5.5H8.56a.5.5 0 0 1-.5-.5V6.103a3 3 0 0 1-.356.84l-.002.003a3.2 3.2 0 0 1-1.285 1.156l-.004.002c-.544.27-1.159.396-1.83.396H2.039a.5.5 0 0 1-.5-.5V2.4a.5.5 0 0 1 .5-.5h2.544c.672 0 1.286.13 1.83.404l.198.106c.45.26.817.608 1.091 1.044q.243.39.358.837v-.595a.5.5 0 0 1 .5-.5h1.192c.144 0 .273.061.364.158a2.7 2.7 0 0 1 1.116-.222c.166 0 .312.081.403.205a.5.5 0 0 1 .084-.065l-.012-.01a1.15 1.15 0 0 1-.377-.862c0-.335.13-.634.377-.863a1.3 1.3 0 0 1 .9-.333Zm3.03.36a.5.5 0 0 1 .5.5V8a.5.5 0 0 1-.5.5H14.39a.5.5 0 0 1-.5-.5V2.064a.5.5 0 0 1 .5-.5zm2.407 0a.5.5 0 0 1 .5.5V8a.5.5 0 0 1-.5.5h-1.248a.5.5 0 0 1-.5-.5V2.064a.5.5 0 0 1 .5-.5zM3.835 6.436h.684c.312 0 .553-.058.74-.154.194-.101.335-.236.434-.41l.003-.007c.102-.173.163-.388.163-.665 0-.284-.06-.497-.16-.661l-.007-.01v-.002a1 1 0 0 0-.428-.4l-.011-.005a1.55 1.55 0 0 0-.734-.158h-.684z"/><defs><linearGradient id="a" x1="10" x2="10" y1="2" y2="8" gradientUnits="userSpaceOnUse"><stop stop-color="#ff00d6"/><stop offset="1" stop-color="#f50"/></linearGradient></defs></svg>