<svg xmlns="http://www.w3.org/2000/svg" width="61" height="31" fill="none" viewBox="0 0 61 31"><g clip-path="url(#a)"><path fill="#cbeeff" d="M0 0h61v31H0z"/><path fill="#fff" fill-opacity=".25" d="M61 32.25H0v-.5h61zm0-2H0v-.5h61zm0-2H0v-.5h61zm0-2H0v-.5h61zm0-2H0v-.5h61zm0-2H0v-.5h61zm0-2H0v-.5h61zm0-2H0v-.5h61zm0-2H0v-.5h61zm0-2H0v-.5h61zm0-2H0v-.5h61zm0-2H0v-.5h61zm0-2H0v-.5h61zm0-2H0v-.5h61zm0-2H0v-.5h61zm0-2H0v-.5h61zm0-2H0v-.5h61z"/></g><defs><clipPath id="a"><path fill="#fff" d="M0 0h61v31H0z"/></clipPath></defs></svg>