<svg xmlns="http://www.w3.org/2000/svg" width="52" height="17" fill="none" viewBox="0 0 52 17"><path fill="#fff" stroke="#000" stroke-linecap="round" stroke-linejoin="round" d="M30.313 8.125c0 .646.276 1.266.768 1.724.493.457 1.16.713 1.857.713H39.5c.512.001 1.008-.165 1.402-.47s.66-.726.752-1.194.005-.95-.246-1.365a2.15 2.15 0 0 0-1.131-.901c.108-.286.128-.595.058-.89a1.6 1.6 0 0 0-.457-.785 1.8 1.8 0 0 0-.834-.442 1.9 1.9 0 0 0-.96.032 2.87 2.87 0 0 0-1.373-1.713 3.27 3.27 0 0 0-2.27-.342 3.07 3.07 0 0 0-1.886 1.221 2.68 2.68 0 0 0-.44 2.096c-.524.161-.98.472-1.305.887a2.32 2.32 0 0 0-.497 1.429"/><mask id="b" width="52" height="10" x="0" y="7" fill="#000" maskUnits="userSpaceOnUse"><path fill="#fff" d="M0 7h52v10H0z"/><path d="M3.746 14.096q-.672 0-1.288-.176-.615-.184-.992-.472l.44-.976q.36.255.848.424.496.16 1 .16.384 0 .616-.072a.75.75 0 0 0 .352-.216.48.48 0 0 0 .112-.312.41.41 0 0 0-.176-.352 1.3 1.3 0 0 0-.464-.216 7 7 0 0 0-.64-.16 9 9 0 0 1-.696-.192q-.344-.112-.632-.288a1.45 1.45 0 0 1-.472-.464q-.176-.288-.176-.736 0-.48.256-.872.265-.4.784-.632.528-.24 1.32-.24.528 0 1.04.128.513.12.904.368l-.4.984a3.3 3.3 0 0 0-.784-.328 2.8 2.8 0 0 0-.768-.112q-.375 0-.616.088a.7.7 0 0 0-.344.232.5.5 0 0 0-.104.32q0 .216.176.352.176.128.464.208t.632.16q.352.08.696.184.352.105.64.28t.464.464q.184.288.184.728 0 .473-.264.864-.264.392-.792.632-.519.24-1.32.24m4.206-.976.032-1.52 2.008-1.904h1.488l-1.928 1.96-.648.528zM6.92 14V8.064h1.248V14zm3.208 0-1.456-1.808.784-.968L11.64 14zm2.36 1.616q-.337 0-.665-.104a1.5 1.5 0 0 1-.536-.288l.456-.888a1.08 1.08 0 0 0 .704.272q.264 0 .416-.128.16-.12.288-.408l.224-.528.096-.136 1.544-3.712h1.2l-1.944 4.568q-.208.52-.48.816a1.5 1.5 0 0 1-.592.416q-.32.12-.712.12m.735-1.448-1.92-4.472h1.288l1.488 3.6zM17.6 14l-1.552-4.304h1.176l1.288 3.704h-.56l1.344-3.704h1.056l1.304 3.704h-.56l1.328-3.704h1.104L21.967 14H20.76l-1.144-3.176h.368L18.8 14zm9.008 0v-.84l-.08-.184v-1.504q0-.4-.248-.624-.24-.225-.744-.224-.344 0-.68.112-.329.104-.56.288l-.448-.872a2.7 2.7 0 0 1 .848-.384q.495-.136 1.008-.136.984 0 1.528.464.543.465.544 1.448V14zm-1.312.064a2 2 0 0 1-.864-.168 1.34 1.34 0 0 1-.552-.472 1.2 1.2 0 0 1-.192-.664q0-.384.184-.672.192-.288.6-.448.408-.168 1.064-.168h1.144v.728h-1.01q-.44 0-.608.144a.46.46 0 0 0-.16.36q0 .24.184.384.192.136.52.136.311 0 .56-.144a.87.87 0 0 0 .36-.44l.192.576q-.136.416-.496.632t-.928.216m3.61-.064V9.696h1.191v1.216l-.168-.352q.192-.456.616-.688.425-.24 1.032-.24v1.152a2 2 0 0 0-.144-.008 1 1 0 0 0-.136-.008q-.512 0-.832.296-.312.288-.312.904V14zm5.23.064q-.607 0-1.096-.272a2.1 2.1 0 0 1-.776-.776q-.28-.495-.28-1.168 0-.68.28-1.176.288-.496.776-.768.487-.272 1.096-.272.544 0 .952.24t.632.728.224 1.248q0 .751-.216 1.248a1.53 1.53 0 0 1-.624.728q-.4.24-.968.24m.216-1.024q.305 0 .552-.144t.392-.408a1.3 1.3 0 0 0 .152-.64q0-.375-.152-.64a1.03 1.03 0 0 0-.392-.408 1.1 1.1 0 0 0-.552-.144q-.312 0-.56.144a1.1 1.1 0 0 0-.4.408 1.3 1.3 0 0 0-.144.64q0 .368.144.64.152.264.4.408t.56.144m1.128.96v-.88l.024-1.28-.08-1.272V8.064h1.248V14zm2.435 0V8.4h1.072l2.384 3.952h-.568L43.146 8.4h1.064l.016 5.6H43.01l-.008-3.736h.224l-1.872 3.144h-.584l-1.912-3.144h.272V14zm10.32.096q-.647 0-1.207-.208a2.86 2.86 0 0 1-1.6-1.528 2.9 2.9 0 0 1-.224-1.16q0-.632.224-1.16.232-.528.64-.92.416-.391.968-.6.552-.216 1.208-.216.727 0 1.312.256.591.247.992.736l-.832.768a1.9 1.9 0 0 0-.64-.488 1.76 1.76 0 0 0-.768-.168q-.393 0-.72.128a1.6 1.6 0 0 0-.568.368q-.24.24-.376.568a2 2 0 0 0-.128.728q0 .4.128.728.136.328.376.568t.568.368q.327.128.72.128.416 0 .768-.16.351-.168.64-.504l.832.768a2.6 2.6 0 0 1-.992.744q-.585.255-1.32.256"/></mask><path fill="#fff" d="M3.746 14.096q-.672 0-1.288-.176-.615-.184-.992-.472l.44-.976q.36.255.848.424.496.16 1 .16.384 0 .616-.072a.75.75 0 0 0 .352-.216.48.48 0 0 0 .112-.312.41.41 0 0 0-.176-.352 1.3 1.3 0 0 0-.464-.216 7 7 0 0 0-.64-.16 9 9 0 0 1-.696-.192q-.344-.112-.632-.288a1.45 1.45 0 0 1-.472-.464q-.176-.288-.176-.736 0-.48.256-.872.265-.4.784-.632.528-.24 1.32-.24.528 0 1.04.128.513.12.904.368l-.4.984a3.3 3.3 0 0 0-.784-.328 2.8 2.8 0 0 0-.768-.112q-.375 0-.616.088a.7.7 0 0 0-.344.232.5.5 0 0 0-.104.32q0 .216.176.352.176.128.464.208t.632.16q.352.08.696.184.352.105.64.28t.464.464q.184.288.184.728 0 .473-.264.864-.264.392-.792.632-.519.24-1.32.24m4.206-.976.032-1.52 2.008-1.904h1.488l-1.928 1.96-.648.528zM6.92 14V8.064h1.248V14zm3.208 0-1.456-1.808.784-.968L11.64 14zm2.36 1.616q-.337 0-.665-.104a1.5 1.5 0 0 1-.536-.288l.456-.888a1.08 1.08 0 0 0 .704.272q.264 0 .416-.128.16-.12.288-.408l.224-.528.096-.136 1.544-3.712h1.2l-1.944 4.568q-.208.52-.48.816a1.5 1.5 0 0 1-.592.416q-.32.12-.712.12m.735-1.448-1.92-4.472h1.288l1.488 3.6zM17.6 14l-1.552-4.304h1.176l1.288 3.704h-.56l1.344-3.704h1.056l1.304 3.704h-.56l1.328-3.704h1.104L21.967 14H20.76l-1.144-3.176h.368L18.8 14zm9.008 0v-.84l-.08-.184v-1.504q0-.4-.248-.624-.24-.225-.744-.224-.344 0-.68.112-.329.104-.56.288l-.448-.872a2.7 2.7 0 0 1 .848-.384q.495-.136 1.008-.136.984 0 1.528.464.543.465.544 1.448V14zm-1.312.064a2 2 0 0 1-.864-.168 1.34 1.34 0 0 1-.552-.472 1.2 1.2 0 0 1-.192-.664q0-.384.184-.672.192-.288.6-.448.408-.168 1.064-.168h1.144v.728h-1.01q-.44 0-.608.144a.46.46 0 0 0-.16.36q0 .24.184.384.192.136.52.136.311 0 .56-.144a.87.87 0 0 0 .36-.44l.192.576q-.136.416-.496.632t-.928.216m3.61-.064V9.696h1.191v1.216l-.168-.352q.192-.456.616-.688.425-.24 1.032-.24v1.152a2 2 0 0 0-.144-.008 1 1 0 0 0-.136-.008q-.512 0-.832.296-.312.288-.312.904V14zm5.23.064q-.607 0-1.096-.272a2.1 2.1 0 0 1-.776-.776q-.28-.495-.28-1.168 0-.68.28-1.176.288-.496.776-.768.487-.272 1.096-.272.544 0 .952.24t.632.728.224 1.248q0 .751-.216 1.248a1.53 1.53 0 0 1-.624.728q-.4.24-.968.24m.216-1.024q.305 0 .552-.144t.392-.408a1.3 1.3 0 0 0 .152-.64q0-.375-.152-.64a1.03 1.03 0 0 0-.392-.408 1.1 1.1 0 0 0-.552-.144q-.312 0-.56.144a1.1 1.1 0 0 0-.4.408 1.3 1.3 0 0 0-.144.64q0 .368.144.64.152.264.4.408t.56.144m1.128.96v-.88l.024-1.28-.08-1.272V8.064h1.248V14zm2.435 0V8.4h1.072l2.384 3.952h-.568L43.146 8.4h1.064l.016 5.6H43.01l-.008-3.736h.224l-1.872 3.144h-.584l-1.912-3.144h.272V14zm10.32.096q-.647 0-1.207-.208a2.86 2.86 0 0 1-1.6-1.528 2.9 2.9 0 0 1-.224-1.16q0-.632.224-1.16.232-.528.64-.92.416-.391.968-.6.552-.216 1.208-.216.727 0 1.312.256.591.247.992.736l-.832.768a1.9 1.9 0 0 0-.64-.488 1.76 1.76 0 0 0-.768-.168q-.393 0-.72.128a1.6 1.6 0 0 0-.568.368q-.24.24-.376.568a2 2 0 0 0-.128.728q0 .4.128.728.136.328.376.568t.568.368q.327.128.72.128.416 0 .768-.16.351-.168.64-.504l.832.768a2.6 2.6 0 0 1-.992.744q-.585.255-1.32.256"/><path fill="url(#a)" d="M3.746 14.096q-.672 0-1.288-.176-.615-.184-.992-.472l.44-.976q.36.255.848.424.496.16 1 .16.384 0 .616-.072a.75.75 0 0 0 .352-.216.48.48 0 0 0 .112-.312.41.41 0 0 0-.176-.352 1.3 1.3 0 0 0-.464-.216 7 7 0 0 0-.64-.16 9 9 0 0 1-.696-.192q-.344-.112-.632-.288a1.45 1.45 0 0 1-.472-.464q-.176-.288-.176-.736 0-.48.256-.872.265-.4.784-.632.528-.24 1.32-.24.528 0 1.04.128.513.12.904.368l-.4.984a3.3 3.3 0 0 0-.784-.328 2.8 2.8 0 0 0-.768-.112q-.375 0-.616.088a.7.7 0 0 0-.344.232.5.5 0 0 0-.104.32q0 .216.176.352.176.128.464.208t.632.16q.352.08.696.184.352.105.64.28t.464.464q.184.288.184.728 0 .473-.264.864-.264.392-.792.632-.519.24-1.32.24m4.206-.976.032-1.52 2.008-1.904h1.488l-1.928 1.96-.648.528zM6.92 14V8.064h1.248V14zm3.208 0-1.456-1.808.784-.968L11.64 14zm2.36 1.616q-.337 0-.665-.104a1.5 1.5 0 0 1-.536-.288l.456-.888a1.08 1.08 0 0 0 .704.272q.264 0 .416-.128.16-.12.288-.408l.224-.528.096-.136 1.544-3.712h1.2l-1.944 4.568q-.208.52-.48.816a1.5 1.5 0 0 1-.592.416q-.32.12-.712.12m.735-1.448-1.92-4.472h1.288l1.488 3.6zM17.6 14l-1.552-4.304h1.176l1.288 3.704h-.56l1.344-3.704h1.056l1.304 3.704h-.56l1.328-3.704h1.104L21.967 14H20.76l-1.144-3.176h.368L18.8 14zm9.008 0v-.84l-.08-.184v-1.504q0-.4-.248-.624-.24-.225-.744-.224-.344 0-.68.112-.329.104-.56.288l-.448-.872a2.7 2.7 0 0 1 .848-.384q.495-.136 1.008-.136.984 0 1.528.464.543.465.544 1.448V14zm-1.312.064a2 2 0 0 1-.864-.168 1.34 1.34 0 0 1-.552-.472 1.2 1.2 0 0 1-.192-.664q0-.384.184-.672.192-.288.6-.448.408-.168 1.064-.168h1.144v.728h-1.01q-.44 0-.608.144a.46.46 0 0 0-.16.36q0 .24.184.384.192.136.52.136.311 0 .56-.144a.87.87 0 0 0 .36-.44l.192.576q-.136.416-.496.632t-.928.216m3.61-.064V9.696h1.191v1.216l-.168-.352q.192-.456.616-.688.425-.24 1.032-.24v1.152a2 2 0 0 0-.144-.008 1 1 0 0 0-.136-.008q-.512 0-.832.296-.312.288-.312.904V14zm5.23.064q-.607 0-1.096-.272a2.1 2.1 0 0 1-.776-.776q-.28-.495-.28-1.168 0-.68.28-1.176.288-.496.776-.768.487-.272 1.096-.272.544 0 .952.24t.632.728.224 1.248q0 .751-.216 1.248a1.53 1.53 0 0 1-.624.728q-.4.24-.968.24m.216-1.024q.305 0 .552-.144t.392-.408a1.3 1.3 0 0 0 .152-.64q0-.375-.152-.64a1.03 1.03 0 0 0-.392-.408 1.1 1.1 0 0 0-.552-.144q-.312 0-.56.144a1.1 1.1 0 0 0-.4.408 1.3 1.3 0 0 0-.144.64q0 .368.144.64.152.264.4.408t.56.144m1.128.96v-.88l.024-1.28-.08-1.272V8.064h1.248V14zm2.435 0V8.4h1.072l2.384 3.952h-.568L43.146 8.4h1.064l.016 5.6H43.01l-.008-3.736h.224l-1.872 3.144h-.584l-1.912-3.144h.272V14zm10.32.096q-.647 0-1.207-.208a2.86 2.86 0 0 1-1.6-1.528 2.9 2.9 0 0 1-.224-1.16q0-.632.224-1.16.232-.528.64-.92.416-.391.968-.6.552-.216 1.208-.216.727 0 1.312.256.591.247.992.736l-.832.768a1.9 1.9 0 0 0-.64-.488 1.76 1.76 0 0 0-.768-.168q-.393 0-.72.128a1.6 1.6 0 0 0-.568.368q-.24.24-.376.568a2 2 0 0 0-.128.728q0 .4.128.728.136.328.376.568t.568.368q.327.128.72.128.416 0 .768-.16.351-.168.64-.504l.832.768a2.6 2.6 0 0 1-.992.744q-.585.255-1.32.256"/><path fill="#000" d="m2.458 13.92-.286.958.011.004zm-.992-.472-.911-.411a1 1 0 0 0 .303 1.205zm.44-.976.58-.815a1 1 0 0 0-1.491.404zm.848.424-.325.945.018.007zm1.616.088.297.955.02-.006zm.352-.216-.772-.636zm-.064-.664-.611.791.023.018zm-.464-.216-.292.956.025.008zm-.64-.16-.226.974.026.006zm-.696-.192-.31.95.007.003zm-.632-.288-.521.853zm-.472-.464-.853.521.01.017zm.08-1.608L1 8.626l-.003.003zm.784-.632.408.913.006-.003zm2.36-.112-.242.97.014.004zm.904.368.927.377a1 1 0 0 0-.392-1.222zm-.4.984-.496.868a1 1 0 0 0 1.423-.491zm-.784-.328-.275.962.019.005zm-1.384-.024-.344-.939zm-.344.232.795.607.016-.022zm.072.672-.611.791.023.018zm.464.208-.267.963zm.632.16-.226.974.005.001zm.696.184-.29.957.007.002zm.64.28.522-.853zm.464.464-.853.521.01.017zm-.08 1.592.83.559zm-.792.632-.414-.91-.005.002zm-1.32.24v-1q-.539-.001-1.013-.137l-.275.961-.275.962a5.7 5.7 0 0 0 1.563.214zm-1.288-.176.286-.958c-.333-.1-.543-.21-.67-.308l-.608.794-.608.794c.375.287.826.49 1.314.636zm-.992-.472.912.411.44-.976-.912-.411-.911-.411-.44.976zm.44-.976-.58.815c.33.234.702.416 1.103.554l.325-.945.326-.946a2.3 2.3 0 0 1-.594-.293zm.848.424-.307.952q.64.207 1.307.208v-2a2.2 2.2 0 0 1-.693-.112zm1 .16v1c.306 0 .623-.027.913-.117l-.297-.955-.296-.955c-.02.006-.113.027-.32.027zm.616-.072.316.949a1.74 1.74 0 0 0 .808-.53l-.772-.635-.772-.636a.4.4 0 0 1 .105-.094c.02-.012.022-.01-.001-.003zm.352-.216.772.636c.222-.27.34-.598.34-.948h-2a.5.5 0 0 1 .116-.324zm.112-.312h1c0-.458-.203-.88-.588-1.16l-.588.808-.588.809a.58.58 0 0 1-.236-.457zm-.176-.352.612-.791a2.3 2.3 0 0 0-.808-.389l-.268.964-.267.963a1 1 0 0 1 .105.038q.028.015.015.006zm-.464-.216.292-.956a8 8 0 0 0-.731-.184l-.2.98-.201.98q.314.064.548.136zm-.64-.16.227-.974a8 8 0 0 1-.62-.17l-.303.952-.303.953q.388.123.773.213zm-.696-.192.31-.95q-.24-.08-.42-.191l-.522.853-.521.853q.395.241.844.386zm-.632-.288.522-.853a.45.45 0 0 1-.151-.15l-.843.539-.843.538c.204.319.47.582.794.78zm-.472-.464.853-.521c.006.008-.029-.042-.029-.215h-2c0 .424.083.865.323 1.257zm-.176-.736h1c0-.131.032-.23.093-.325l-.837-.547-.837-.547a2.56 2.56 0 0 0-.419 1.419zm.256-.872.835.55c.052-.079.15-.177.357-.269l-.408-.913-.407-.913c-.488.217-.912.54-1.211.994zm.784-.632.414.91c.184-.083.472-.15.906-.15v-2c-.621 0-1.213.093-1.734.33zm1.32-.24v1q.405 0 .798.098l.242-.97.243-.97a5.3 5.3 0 0 0-1.283-.158zm1.04.128-.228.974a1.9 1.9 0 0 1 .598.24l.534-.846.535-.845a3.9 3.9 0 0 0-1.21-.497zm.904.368-.926-.377-.4.984.926.377.927.377.4-.984zm-.4.984.496-.868a4.3 4.3 0 0 0-1.023-.427l-.257.967-.256.967q.252.064.544.23zm-.784-.328.275-.962a3.8 3.8 0 0 0-1.043-.15v2q.225-.002.493.074zm-.768-.112v-1c-.318 0-.65.036-.96.15l.344.938.344.939a1 1 0 0 1 .272-.027zm-.616.088-.344-.939a1.7 1.7 0 0 0-.81.586l.81.585.81.585a.5.5 0 0 1-.113.114c-.023.016-.03.016-.009.008zm-.344.232-.794-.607c-.213.278-.31.602-.31.927h2a.5.5 0 0 1-.102.287zm-.104.32h-1c0 .464.21.87.565 1.143l.611-.791.612-.791a.57.57 0 0 1 .213.44zm.176.352-.588.809c.243.176.517.288.785.363l.267-.964.268-.964a1 1 0 0 1-.119-.04l-.025-.013zm.464.208-.267.963q.311.087.673.171l.226-.974.227-.974q-.327-.075-.591-.15zm.632.16-.221.975q.317.072.628.166l.29-.957.289-.957a11 11 0 0 0-.764-.202zm.696.184-.283.959q.236.071.402.174l.521-.853.522-.853a3.7 3.7 0 0 0-.878-.386zm.64.28-.521.853a.4.4 0 0 1 .132.132l.853-.521.853-.521a2.4 2.4 0 0 0-.795-.796zm.464.464-.843.538c-.005-.009.027.033.027.19h2c0-.43-.09-.873-.341-1.266zm.184.728h-1a.5.5 0 0 1-.093.305l.83.559.829.559c.287-.427.434-.909.434-1.423zm-.264.864-.83-.559c-.05.077-.154.18-.376.28l.414.911.414.91c.482-.219.907-.537 1.208-.983zm-.792.632-.419-.908c-.174.08-.458.148-.9.148v2c.624 0 1.219-.092 1.738-.332zm2.886-.736-1-.021a1 1 0 0 0 1.7.734zm.032-1.52-.688-.726a1 1 0 0 0-.312.705zm2.008-1.904v-1a1 1 0 0 0-.688.274zm1.488 0 .713.701a1 1 0 0 0-.713-1.701zm-1.928 1.96.631.775a1 1 0 0 0 .082-.074zm-.648.528-.632-.775a1 1 0 0 0-.07.062zM6.92 14h-1a1 1 0 0 0 1 1zm0-5.936v-1a1 1 0 0 0-1 1zm1.248 0h1a1 1 0 0 0-1-1zm0 5.936v1a1 1 0 0 0 1-1zm1.96 0-.78.627a1 1 0 0 0 .78.373zm-1.456-1.808-.777-.63a1 1 0 0 0-.002 1.257zm.784-.968.786-.618a1 1 0 0 0-1.563-.011zM11.64 14v1a1 1 0 0 0 .786-1.618zm-3.688-.88 1 .021.032-1.52-1-.021-1-.021-.032 1.52zm.032-1.52.688.726 2.008-1.904-.688-.726-.688-.726-2.008 1.904zm2.008-1.904v1h1.488v-2H9.992zm1.488 0-.713-.701-1.928 1.96.713.701.713.701 1.928-1.96zm-1.928 1.96-.632-.775-.648.528.632.775.631.775.648-.528zm-.648.528-.701-.713-.952.936.7.713.702.713.952-.936zM6.92 14h1V8.064h-2V14zm0-5.936v1h1.248v-2H6.92zm1.248 0h-1V14h2V8.064zm0 5.936v-1H6.92v2h1.248zm1.96 0 .779-.627-1.456-1.808-.78.627-.778.627 1.456 1.808zm-1.456-1.808.777.63.784-.969-.777-.629-.777-.63-.784.969zm.784-.968-.786.618 2.184 2.776.786-.618.786-.618-2.184-2.776zM11.64 14v-1h-1.512v2h1.512zm.183 1.512.302-.953zm-.536-.288-.89-.457a1 1 0 0 0 .228 1.206zm.456-.888.665-.747a1 1 0 0 0-1.554.29zm.328.2-.364.931.013.005zm.792-.056-.6-.8-.044.035zm.288-.408.914.406.007-.015zm.224-.528-.817-.577q-.061.087-.103.186zm.096-.136.817.577q.064-.09.107-.193zm1.544-3.712v-1a1 1 0 0 0-.923.616zm1.2 0 .92.392a1 1 0 0 0-.92-1.392zm-1.944 4.568-.92-.392-.008.02zm-.48.816-.736-.677-.01.011zm-.592.416-.343-.94-.008.004zm.024-1.328-.919.395a1 1 0 0 0 1.633.305zm-1.92-4.472v-1a1 1 0 0 0-.919 1.395zm1.288 0 .924-.382a1 1 0 0 0-.924-.618zm1.488 3.6.714.7a1 1 0 0 0 .21-1.082zm-1.592 2.32v-1q-.177 0-.362-.057l-.302.953-.302.953q.472.15.966.151zm-.664-.104.302-.953a.5.5 0 0 1-.175-.084l-.663.749-.662.749c.265.234.575.39.896.492zm-.536-.288.89.457.456-.888-.89-.457-.89-.457-.455.888zm.456-.888-.664.747c.186.166.398.294.628.384l.364-.931.365-.931a.1.1 0 0 1-.028-.016zm.328.2-.35.936c.227.086.47.136.726.136v-2h.002l-.027-.008zm.376.072v1a1.62 1.62 0 0 0 1.06-.363l-.644-.765-.644-.765c.13-.11.247-.107.228-.107zm.416-.128.6.8c.3-.225.484-.535.602-.802l-.914-.406-.914-.406-.039.075.014-.016a.4.4 0 0 1 .051-.045zm.288-.408.92.39.225-.527-.92-.391-.921-.39-.224.527zm.224-.528.817.577.096-.136-.817-.577-.817-.577-.096.136zm.096-.136.924.384 1.543-3.712-.923-.384-.923-.384-1.544 3.712zm1.544-3.712v1h1.2v-2h-1.2zm1.2 0-.92-.392-1.944 4.568.92.392.92.392 1.944-4.568zm-1.944 4.568-.928-.371c-.11.275-.214.43-.288.51l.736.677.736.677c.29-.315.505-.703.673-1.122zm-.48.816-.746-.666a.5.5 0 0 1-.19.143l.344.939.344.94c.393-.145.724-.387.995-.69zm-.592.416-.35-.936a1 1 0 0 1-.362.056v2c.364 0 .723-.056 1.063-.184zm.024-1.328.92-.394-1.92-4.473-.92.395-.919.395 1.92 4.472zm-1.92-4.472v1h1.288v-2h-1.288zm1.288 0-.924.382 1.488 3.6.924-.382.924-.382-1.488-3.6zm1.488 3.6-.713-.7-.856.871.713.701.714.7.856-.872zM17.6 14l-.94.34a1 1 0 0 0 .94.66zm-1.552-4.304v-1a1 1 0 0 0-.94 1.34zm1.176 0 .945-.328a1 1 0 0 0-.945-.672zm1.288 3.704v1a1 1 0 0 0 .945-1.328zm-.56 0-.94-.341a1 1 0 0 0 .94 1.341zm1.344-3.704v-1a1 1 0 0 0-.94.659zm1.056 0 .943-.332a1 1 0 0 0-.943-.668zm1.304 3.704v1a1 1 0 0 0 .943-1.332zm-.56 0-.941-.338a1 1 0 0 0 .941 1.338zm1.328-3.704v-1a1 1 0 0 0-.941.662zm1.104 0 .94.34a1 1 0 0 0-.94-1.34zM21.967 14v1a1 1 0 0 0 .94-.66zm-1.208 0-.94.339a1 1 0 0 0 .94.661zm-1.144-3.176v-1a1 1 0 0 0-.94 1.339zm.368 0 .937.35a1 1 0 0 0-.937-1.35zM18.8 14v1a1 1 0 0 0 .937-.65zm-1.2 0 .94-.34-1.551-4.303-.94.339-.942.34 1.552 4.303zm-1.552-4.304v1h1.176v-2h-1.176zm1.176 0-.944.328 1.288 3.704.944-.328.945-.328-1.288-3.704zm1.288 3.704v-1h-.56v2h.56zm-.56 0 .94.341 1.344-3.704-.94-.341-.94-.341-1.344 3.704zm1.344-3.704v1h1.056v-2h-1.056zm1.056 0-.943.332 1.304 3.704.943-.332.943-.332-1.304-3.704zm1.304 3.704v-1h-.56v2h.56zm-.56 0 .941.338 1.328-3.704-.94-.338-.942-.338-1.328 3.704zm1.328-3.704v1h1.104v-2h-1.104zm1.104 0-.94-.34-1.56 4.303.94.341.94.34 1.56-4.303zM21.967 14v-1H20.76v2h1.208zm-1.208 0 .94-.339-1.143-3.176-.94.339-.942.339 1.144 3.176zm-1.144-3.176v1h.368v-2h-.368zm.368 0-.937-.35-1.184 3.177.937.349.937.35 1.184-3.177zM18.8 14v-1h-1.2v2h1.2zm7.808 0h-1a1 1 0 0 0 1 1zm0-.84h1a1 1 0 0 0-.083-.399zm-.08-.184h-1a1 1 0 0 0 .083.399zm-.248-2.128-.683.731.012.011zm-1.424-.112.302.953.014-.004zm-.56.288-.89.457a1 1 0 0 0 1.511.326zm-.448-.872-.576-.817a1 1 0 0 0-.314 1.274zm.848-.384-.265-.964zm2.536.328.649-.76zM27.775 14v1a1 1 0 0 0 1-1zm-3.344-.104-.44.898.017.008zm-.552-.472.839-.544zm-.008-1.336-.832-.555-.011.017zm.6-.448.365.931.015-.006zm2.208-.168h1a1 1 0 0 0-1-1zm0 .728v1a1 1 0 0 0 1-1zm-1.616.144-.651-.76-.018.017zm.024.744-.617.788.039.028zm1.08-.008.502.865.02-.012zm.36-.44.948-.316a1 1 0 0 0-1.88-.046zm.192.576.95.31a1 1 0 0 0-.002-.626zm-.496.632-.515-.857zm.384.152h1v-.84h-2V14zm0-.84.917-.399-.08-.184-.917.399-.917.399.08.184zm-.08-.184h1v-1.504h-2v1.504zm0-1.504h1c0-.489-.162-.99-.578-1.366l-.67.742-.67.742a.3.3 0 0 1-.074-.105c-.013-.033-.008-.043-.008-.013zm-.248-.624.682-.731c-.423-.395-.968-.493-1.426-.493v2a1 1 0 0 1 .15.013.2.2 0 0 1-.089-.058zm-.744-.224v-1q-.511.001-.997.163l.317.949.316.949q.186-.062.364-.061zm-.68.112-.303-.953c-.316.1-.615.248-.879.458l.622.783.621.784a.8.8 0 0 1 .24-.119zm-.56.288.89-.457-.449-.872-.89.457-.889.457.448.872zm-.448-.872.576.818c.123-.088.296-.172.536-.238l-.264-.964-.265-.964a3.7 3.7 0 0 0-1.16.53zm.848-.384.264.964q.367-.1.744-.1v-2q-.647 0-1.273.172zm1.008-.136v1c.507 0 .755.12.879.225l.649-.761.649-.76c-.602-.514-1.373-.704-2.177-.704zm1.528.464-.65.76c.066.056.194.21.194.688h2c0-.833-.235-1.646-.895-2.209zm.544 1.448h-1V14h2v-2.456zm0 2.456v-1h-1.168v2h1.168zm-2.48.064v-1c-.228 0-.365-.038-.442-.074l-.422.906-.423.906c.403.188.843.262 1.287.262zm-.864-.168.439-.898a.35.35 0 0 1-.152-.118l-.84.544-.838.544c.24.37.571.64.951.826zm-.552-.472.839-.544a.2.2 0 0 1-.031-.12h-2c0 .43.115.842.353 1.208zm-.192-.664h1c0-.09.019-.122.026-.134l-.842-.538-.843-.538a2.2 2.2 0 0 0-.341 1.21zm.184-.672.832.555c-.005.006-.004.002.012-.01a.5.5 0 0 1 .12-.062l-.364-.931-.366-.931c-.411.162-.798.422-1.066.824zm.6-.448.38.925c.108-.044.32-.093.684-.093v-2c-.51 0-1.009.064-1.445.243zm1.064-.168v1h1.144v-2h-1.144zm1.144 0h-1v.728h2v-.728zm0 .728v-1H25.67v2h1.008zm-1.008 0v-1c-.331 0-.856.04-1.26.385l.652.759.65.76a.6.6 0 0 1-.133.086l-.05.02.034-.006q.036-.006.107-.004zm-.608.144-.67-.743a1.46 1.46 0 0 0-.49 1.103h2a.5.5 0 0 1-.047.208.5.5 0 0 1-.124.175zm-.16.36h-1c0 .458.195.88.567 1.172l.617-.788.616-.787a.53.53 0 0 1 .2.403zm.184.384-.578.816c.351.25.751.32 1.098.32v-2c-.042 0-.053-.005-.041-.002a.3.3 0 0 1 .099.05zm.52.136v1c.368 0 .73-.087 1.062-.28l-.502-.864-.503-.865-.01.005a.2.2 0 0 1-.047.004zm.56-.144.522.853a1.87 1.87 0 0 0 .77-.93l-.932-.363-.932-.362.012-.017a.2.2 0 0 1 .037-.034zm.36-.44-.95.316.193.576.949-.316.948-.316-.192-.576zm.192.576-.95-.31c-.02.058-.037.07-.06.085l.514.857.514.857c.456-.273.77-.683.932-1.178zm-.496.632-.515-.857c-.039.023-.154.073-.413.073v2c.498 0 1.001-.094 1.442-.358zm2.681.152h-1a1 1 0 0 0 1 1zm0-4.304v-1a1 1 0 0 0-1 1zm1.192 0h1a1 1 0 0 0-1-1zm0 1.216-.902.43a1 1 0 0 0 1.902-.43zm-.168-.352-.922-.388a1 1 0 0 0 .02.819zm.616-.688.48.877.013-.007zm1.032-.24h1a1 1 0 0 0-1-1zm0 1.152-.1.995a1 1 0 0 0 1.1-.995zm-.144-.008-.124.992q.062.008.124.008zm-.968.288.678.735h.001zM30.152 14v1a1 1 0 0 0 1-1zm-1.248 0h1V9.696h-2V14zm0-4.304v1h1.192v-2h-1.192zm1.192 0h-1v1.216h2V9.696zm0 1.216.903-.43-.168-.353-.903.431-.902.43.168.353zm-.168-.352.922.388a.37.37 0 0 1 .174-.199l-.48-.877-.48-.877c-.486.266-.844.67-1.058 1.177zm.616-.688.493.87c.1-.056.264-.11.54-.11v-2c-.537 0-1.06.106-1.526.37zm1.032-.24h-1v1.152h2V9.632zm0 1.152.1-.995a3 3 0 0 0-.244-.013v2l.045.003zm-.144-.008.124-.992a2 2 0 0 0-.26-.016v2h.012zm-.136-.008v-1c-.546 0-1.081.164-1.51.562l.678.734.68.734.023-.014a.4.4 0 0 1 .13-.016zm-.832.296-.678-.735c-.491.454-.634 1.077-.634 1.639h2c0-.125.016-.187.023-.208.005-.014 0 .01-.033.039zm-.312.904h-1V14h2v-2.032zm0 2.032v-1h-1.248v2h1.248zm2.887-.208-.498.867.011.006zm-.776-.776-.871.492.006.01zm0-2.344-.865-.502-.006.01zm.776-.768-.487-.873zm2.048-.032.507-.862zm.632.728.909-.417zm.008 2.496.914.405.003-.006zm-.624.728-.507-.862-.008.005zm-.2-.928-.502-.865zm.392-.408L34.422 12l-.005.01zm0-1.28-.878.479.011.02zm-.392-.408-.502.865zm-1.112 0 .502.865zm-.4.408-.867-.499-.011.02zm0 1.28-.884.468.017.031zm.4.408.502-.865zM35.479 14h-1a1 1 0 0 0 1 1zm0-.88-1-.019v.019zm.024-1.28 1 .019-.002-.082zm-.08-1.272h-1l.002.063zm0-2.504v-1a1 1 0 0 0-1 1zm1.248 0h1a1 1 0 0 0-1-1zm0 5.936v1a1 1 0 0 0 1-1zm-2.536.064v-1c-.25 0-.446-.054-.61-.146l-.486.874-.487.874a3.2 3.2 0 0 0 1.583.398zm-1.096-.272.498-.867a1.1 1.1 0 0 1-.41-.411l-.864.502-.865.502c.279.48.662.865 1.143 1.141zm-.776-.776.87-.492c-.087-.155-.15-.37-.15-.676h-2c0 .59.124 1.154.41 1.66zm-.28-1.168h1c0-.315.064-.53.15-.684l-.87-.492-.87-.492c-.287.508-.41 1.076-.41 1.668zm.28-1.176.865.502c.104-.18.234-.305.398-.396l-.487-.874-.487-.873a3 3 0 0 0-1.154 1.139zm.776-.768.487.874c.163-.092.359-.146.609-.146v-2c-.56 0-1.096.127-1.583.399zm1.096-.272v1a.85.85 0 0 1 .445.102l.507-.862.507-.862a2.84 2.84 0 0 0-1.46-.378zm.952.24-.507.862c.073.043.154.118.23.283l.909-.417.909-.417a2.6 2.6 0 0 0-1.034-1.173zm.632.728-.909.417c.07.152.133.413.133.831h2c0-.595-.086-1.166-.315-1.665zm.224 1.248h-1c0 .414-.06.683-.133.849l.917.399.917.4c.216-.496.299-1.06.299-1.648zm-.216 1.248-.914-.405c-.071.16-.148.23-.217.271l.507.862.507.862c.475-.28.814-.694 1.031-1.185zm-.624.728-.515-.857c-.08.048-.216.097-.453.097v2c.52 0 1.03-.11 1.482-.383zm-.752-.784v1c.368 0 .727-.09 1.054-.28l-.502-.864-.502-.865c-.004.002-.013.009-.05.009zm.552-.144.502.865a2.03 2.03 0 0 0 .768-.794l-.878-.479-.878-.479-.013.02h-.001l-.002.002zm.392-.408.873.488c.199-.356.279-.743.279-1.128h-2c0 .106-.02.145-.025.152zm.152-.64h1c0-.385-.078-.78-.285-1.139l-.867.499-.867.499c-.004-.008.019.025.019.141zm-.152-.64.878-.479a2.03 2.03 0 0 0-.768-.794l-.502.865-.502.865.002.001.014.02zm-.392-.408.502-.865a2.1 2.1 0 0 0-1.054-.279v2c.037 0 .046.007.05.009zm-.552-.144v-1c-.368 0-.731.087-1.062.28l.502.864.502.865.011-.004a.2.2 0 0 1 .047-.005zm-.56.144-.502-.865c-.326.19-.582.456-.765.774l.867.499.867.499c.02-.034.03-.04.035-.042zm-.4.408-.878-.479a2.3 2.3 0 0 0-.266 1.119h2a.6.6 0 0 1 .019-.154l.003-.007zm-.144.64h-1c0 .377.074.757.26 1.108l.884-.468.884-.468a.4.4 0 0 1-.028-.172zm.144.64-.867.499c.183.318.439.584.765.774l.502-.865.502-.865c-.004-.002-.016-.008-.035-.042zm.4.408-.502.865c.33.192.694.279 1.062.279v-2a.2.2 0 0 1-.047-.004l-.01-.005zM35.479 14h1v-.88h-2V14zm0-.88 1 .019.024-1.28-1-.019-1-.019-.024 1.28zm.024-1.28.998-.063-.08-1.272-.998.063-.998.063.08 1.272zm-.08-1.272h1V8.064h-2v2.504zm0-2.504v1h1.248v-2h-1.248zm1.248 0h-1V14h2V8.064zm0 5.936v-1h-1.192v2h1.192zm1.243 0h-1a1 1 0 0 0 1 1zm0-5.6v-1a1 1 0 0 0-1 1zm1.072 0 .856-.517a1 1 0 0 0-.856-.483zm2.384 3.952v1a1 1 0 0 0 .856-1.517zm-.568 0-.86-.51a1 1 0 0 0 .86 1.51zM43.146 8.4v-1a1 1 0 0 0-.86.49zm1.064 0 1-.003a1 1 0 0 0-1-.997zm.016 5.6v1a1 1 0 0 0 1-1.003zm-1.216 0-1 .002a1 1 0 0 0 1 .998zm-.008-3.736v-1a1 1 0 0 0-1 1.002zm.224 0 .86.512a1 1 0 0 0-.86-1.512zm-1.872 3.144v1a1 1 0 0 0 .86-.488zm-.584 0-.854.52a1 1 0 0 0 .854.48zm-1.912-3.144v-1a1 1 0 0 0-.854 1.52zm.272 0h1a1 1 0 0 0-1-1zm0 3.736v1a1 1 0 0 0 1-1zm-1.216 0h1V8.4h-2V14zm0-5.6v1h1.072v-2h-1.072zm1.072 0-.856.517 2.384 3.951.856-.516.856-.517-2.384-3.952zm2.384 3.952v-1h-.568v2h.568zm-.568 0 .86.51 2.344-3.952-.86-.51-.86-.51-2.344 3.952zM43.146 8.4v1h1.064v-2h-1.064zm1.064 0-1 .003.016 5.6 1-.003 1-.003-.016-5.6zm.016 5.6v-1H43.01v2h1.216zm-1.216 0 1-.002-.008-3.736-1 .002-1 .002.008 3.736zm-.008-3.736v1h.224v-2h-.224zm.224 0-.86-.512-1.871 3.144.859.512.86.512 1.871-3.144zm-1.872 3.144v-1h-.584v2h.584zm-.584 0 .854-.52-1.912-3.144-.854.52-.854.52 1.912 3.144zm-1.912-3.144v1h.272v-2h-.272zm.272 0h-1V14h2v-3.736zm0 3.736v-1h-1.216v2h1.216zm7.897-.112-.365.931.016.006zm-.96-.608-.693.721zm-.64-.92-.921.39.005.012zm0-2.32-.916-.402-.005.011zm.64-.92-.686-.728-.007.007zm.968-.6.352.936.012-.005zm2.52.04-.402.916.015.006zm.992.736.678.735a1 1 0 0 0 .095-1.369zm-.832.768-.752.66a1 1 0 0 0 1.43.075zm-.64-.488-.431.902.017.008zm-2.056.328.707.707zm-.376.568-.924-.383-.008.02zm0 1.456-.932.363.008.02zm.376.568-.707.707zm2.056.336.413.91.017-.008zm.64-.504.678-.735a1 1 0 0 0-1.438.084zm.832.768.773.634a1 1 0 0 0-.095-1.369zm-.992.744-.397-.918-.005.002zm-1.32.256v-1c-.324 0-.607-.052-.86-.145l-.348.937-.349.937a4.4 4.4 0 0 0 1.557.271zm-1.208-.208.364-.931a1.9 1.9 0 0 1-.631-.398l-.693.721-.693.721c.37.357.804.629 1.288.818zm-.96-.608.693-.721a1.9 1.9 0 0 1-.418-.601l-.915.402-.916.402q.31.706.863 1.24zm-.64-.92.92-.39a1.9 1.9 0 0 1-.144-.77h-2c0 .542.096 1.063.303 1.55zm-.224-1.16h1c0-.3.052-.553.144-.77l-.92-.39-.921-.39a3.9 3.9 0 0 0-.303 1.55zm.224-1.16.915.402q.154-.35.417-.6l-.692-.722-.693-.721c-.368.354-.657.77-.863 1.239zm.64-.92.685.728q.265-.252.635-.392l-.352-.936-.353-.936a3.9 3.9 0 0 0-1.301.808zm.968-.6.364.931a2.3 2.3 0 0 1 .844-.147v-2c-.55 0-1.077.09-1.573.285zm1.208-.216v1c.366 0 .664.064.91.172l.402-.916.401-.916a4.2 4.2 0 0 0-1.713-.34zm1.312.256-.387.922c.247.104.444.251.605.448l.774-.634.773-.634a3.5 3.5 0 0 0-1.379-1.024zm.992.736-.679-.735-.832.768.679.735.678.735.832-.768zm-.832.768.751-.66a2.9 2.9 0 0 0-.978-.738l-.413.91-.414.91a.9.9 0 0 1 .302.238zm-.64-.488.43-.902a2.76 2.76 0 0 0-1.198-.266v2a.8.8 0 0 1 .337.07zm-.768-.168v-1c-.372 0-.737.061-1.084.196l.364.932.363.932a1 1 0 0 1 .357-.06zm-.72.128-.364-.932a2.6 2.6 0 0 0-.911.593l.707.707.707.707a.6.6 0 0 1 .224-.143zm-.568.368-.707-.707a2.7 2.7 0 0 0-.593.892l.924.383.923.383a.7.7 0 0 1 .16-.244zm-.376.568-.932-.364c-.136.35-.196.718-.196 1.092h2c0-.16.025-.276.06-.364zm-.128.728h-1c0 .374.06.742.196 1.092l.932-.364.931-.364a1 1 0 0 1-.06-.364zm.128.728-.924.383c.138.334.335.635.593.892l.707-.707.707-.707a.7.7 0 0 1-.16-.244zm.376.568-.707.707c.261.261.569.459.911.593l.364-.932.363-.932a.6.6 0 0 1-.224-.143zm.568.368-.364.932c.347.135.712.196 1.084.196v-2a1 1 0 0 1-.357-.06zm.72.128v1c.409 0 .807-.08 1.181-.25l-.413-.91-.414-.91a.8.8 0 0 1-.354.07zm.768-.16.43.902c.377-.18.698-.44.969-.755l-.76-.651-.759-.65a1 1 0 0 1-.311.252zm.64-.504-.679.735.832.768.679-.735.678-.735-.832-.768zm.832.768-.774-.634c-.163.2-.364.351-.615.46l.397.918.397.918a3.6 3.6 0 0 0 1.368-1.028zm-.992.744-.402-.916a2.3 2.3 0 0 1-.918.172v2c.607 0 1.187-.106 1.721-.34z" mask="url(#b)"/><defs><linearGradient id="a" x1="26.179" x2="26.179" y1="6.465" y2="15.899" gradientUnits="userSpaceOnUse"><stop stop-color="#0af"/><stop offset="1" stop-color="#0ff"/></linearGradient></defs></svg>